<?xml version="1.0" encoding="UTF-8" standalone="no"?>
<!DOCTYPE svg PUBLIC "-//W3C//DTD SVG 1.1//EN"
 "http://www.w3.org/Graphics/SVG/1.1/DTD/svg11.dtd">
<!-- Generated by graphviz version 2.43.20190912.0211 (20190912.0211)
 -->
<!-- Title: Concepts Pages: 1 -->
<svg width="492pt" height="415pt"
 viewBox="0.00 0.00 492.00 415.00" xmlns="http://www.w3.org/2000/svg" xmlns:xlink="http://www.w3.org/1999/xlink">
<g id="graph0" class="graph" transform="scale(1 1) rotate(0) translate(4 411)">
<title>Concepts</title>
<polygon fill="white" stroke="transparent" points="-4,4 -4,-411 488,-411 488,4 -4,4"/>
<!-- range -->
<g id="node1" class="node">
<title>range</title>
<polygon fill="none" stroke="blue" stroke-width="3" points="248.68,-394.56 207.5,-407 166.32,-394.56 166.36,-374.44 248.64,-374.44 248.68,-394.56"/>
<text text-anchor="middle" x="207.5" y="-385.9" font-family="monospace" font-size="12.00">range</text>
</g>
<!-- common_range -->
<g id="node2" class="node">
<title>common_range</title>
<polygon fill="none" stroke="blue" stroke-width="3" points="107,-335 0,-335 0,-299 107,-299 107,-335"/>
<text text-anchor="middle" x="53.5" y="-313.9" font-family="monospace" font-size="12.00">common_range</text>
</g>
<!-- range&#45;&gt;common_range -->
<g id="edge1" class="edge">
<title>range&#45;&gt;common_range</title>
<path fill="none" stroke="black" stroke-width="2" d="M177.44,-374.34C155.55,-364.39 125.48,-350.72 100.44,-339.34"/>
<polygon fill="black" stroke="black" stroke-width="2" points="101.67,-336.05 91.12,-335.1 98.77,-342.42 101.67,-336.05"/>
</g>
<!-- sized -->
<g id="node3" class="node">
<title>sized</title>
<polygon fill="none" stroke="blue" stroke-width="3" points="180,-263 21,-263 21,-227 180,-227 180,-263"/>
<text text-anchor="middle" x="100.5" y="-248.4" font-family="monospace" font-size="12.00">sized_range</text>
<text text-anchor="middle" x="100.5" y="-235.4" font-family="monospace" font-size="12.00">disable_sized_range</text>
</g>
<!-- range&#45;&gt;sized -->
<g id="edge2" class="edge">
<title>range&#45;&gt;sized</title>
<path fill="none" stroke="black" stroke-width="2" d="M197.24,-374.38C179.44,-350.76 142.54,-301.8 119.82,-271.63"/>
<polygon fill="black" stroke="black" stroke-width="2" points="122.34,-269.17 113.53,-263.29 116.75,-273.39 122.34,-269.17"/>
</g>
<!-- output_range -->
<g id="node4" class="node">
<title>output_range</title>
<polygon fill="none" stroke="blue" stroke-width="3" points="239,-191 132,-191 132,-155 239,-155 239,-191"/>
<text text-anchor="middle" x="185.5" y="-169.9" font-family="monospace" font-size="12.00">output_range</text>
</g>
<!-- range&#45;&gt;output_range -->
<g id="edge3" class="edge">
<title>range&#45;&gt;output_range</title>
<path fill="none" stroke="black" stroke-width="2" d="M206.09,-374.29C202.52,-339.53 193.05,-247.46 188.3,-201.25"/>
<polygon fill="black" stroke="black" stroke-width="2" points="191.76,-200.67 187.26,-191.08 184.8,-201.38 191.76,-200.67"/>
</g>
<!-- view -->
<g id="node5" class="node">
<title>view</title>
<polygon fill="none" stroke="blue" stroke-width="3" points="307,-119 208,-119 208,-72 307,-72 307,-119"/>
<text text-anchor="middle" x="257.5" y="-105.4" font-family="monospace" font-size="12.00">view</text>
<text text-anchor="middle" x="257.5" y="-92.4" font-family="monospace" font-size="12.00">enable_view</text>
<text text-anchor="middle" x="257.5" y="-79.4" font-family="monospace" font-size="12.00">view_base</text>
</g>
<!-- range&#45;&gt;view -->
<g id="edge4" class="edge">
<title>range&#45;&gt;view</title>
<path fill="none" stroke="black" stroke-width="2" d="M210.77,-374.23C218.25,-342.23 236.82,-260.33 247.5,-191 250.65,-170.55 253.11,-147.47 254.81,-129.23"/>
<polygon fill="black" stroke="black" stroke-width="2" points="258.31,-129.38 255.71,-119.11 251.34,-128.76 258.31,-129.38"/>
</g>
<!-- input_range -->
<g id="node7" class="node">
<title>input_range</title>
<polygon fill="none" stroke="blue" stroke-width="3" points="409,-335 310,-335 310,-299 409,-299 409,-335"/>
<text text-anchor="middle" x="359.5" y="-313.9" font-family="monospace" font-size="12.00">input_range</text>
</g>
<!-- range&#45;&gt;input_range -->
<g id="edge6" class="edge">
<title>range&#45;&gt;input_range</title>
<path fill="none" stroke="black" stroke-width="2" d="M237.17,-374.34C258.77,-364.39 288.45,-350.72 313.17,-339.34"/>
<polygon fill="black" stroke="black" stroke-width="2" points="314.75,-342.46 322.37,-335.1 311.82,-336.1 314.75,-342.46"/>
</g>
<!-- viewable_range -->
<g id="node6" class="node">
<title>viewable_range</title>
<polygon fill="none" stroke="blue" stroke-width="3" points="318.5,-36 196.5,-36 196.5,0 318.5,0 318.5,-36"/>
<text text-anchor="middle" x="257.5" y="-14.9" font-family="monospace" font-size="12.00">viewable_range</text>
</g>
<!-- view&#45;&gt;viewable_range -->
<g id="edge5" class="edge">
<title>view&#45;&gt;viewable_range</title>
<path fill="none" stroke="black" stroke-width="2" d="M257.5,-71.85C257.5,-63.78 257.5,-54.62 257.5,-46.22"/>
<polygon fill="black" stroke="black" stroke-width="2" points="261,-46.11 257.5,-36.11 254,-46.11 261,-46.11"/>
</g>
<!-- forward_range -->
<g id="node8" class="node">
<title>forward_range</title>
<polygon fill="none" stroke="blue" stroke-width="3" points="430.5,-263 316.5,-263 316.5,-227 430.5,-227 430.5,-263"/>
<text text-anchor="middle" x="373.5" y="-241.9" font-family="monospace" font-size="12.00">forward_range</text>
</g>
<!-- input_range&#45;&gt;forward_range -->
<g id="edge7" class="edge">
<title>input_range&#45;&gt;forward_range</title>
<path fill="none" stroke="black" stroke-width="2" d="M362.96,-298.7C364.5,-290.98 366.36,-281.71 368.08,-273.11"/>
<polygon fill="black" stroke="black" stroke-width="2" points="371.55,-273.6 370.08,-263.1 364.69,-272.22 371.55,-273.6"/>
</g>
<!-- bidirectional_range -->
<g id="node9" class="node">
<title>bidirectional_range</title>
<polygon fill="none" stroke="blue" stroke-width="3" points="474,-191 315,-191 315,-155 474,-155 474,-191"/>
<text text-anchor="middle" x="394.5" y="-169.9" font-family="monospace" font-size="12.00">bidirectional_range</text>
</g>
<!-- forward_range&#45;&gt;bidirectional_range -->
<g id="edge8" class="edge">
<title>forward_range&#45;&gt;bidirectional_range</title>
<path fill="none" stroke="black" stroke-width="2" d="M378.69,-226.7C381.03,-218.9 383.85,-209.51 386.45,-200.83"/>
<polygon fill="black" stroke="black" stroke-width="2" points="389.85,-201.69 389.37,-191.1 383.14,-199.68 389.85,-201.69"/>
</g>
<!-- random_access_range -->
<g id="node10" class="node">
<title>random_access_range</title>
<polygon fill="none" stroke="blue" stroke-width="3" points="484,-113.5 325,-113.5 325,-77.5 484,-77.5 484,-113.5"/>
<text text-anchor="middle" x="404.5" y="-92.4" font-family="monospace" font-size="12.00">random_access_range</text>
</g>
<!-- bidirectional_range&#45;&gt;random_access_range -->
<g id="edge9" class="edge">
<title>bidirectional_range&#45;&gt;random_access_range</title>
<path fill="none" stroke="black" stroke-width="2" d="M396.77,-154.87C398,-145.6 399.54,-133.94 400.93,-123.49"/>
<polygon fill="black" stroke="black" stroke-width="2" points="404.4,-123.94 402.24,-113.56 397.46,-123.02 404.4,-123.94"/>
</g>
<!-- contiguous_range -->
<g id="node11" class="node">
<title>contiguous_range</title>
<polygon fill="none" stroke="blue" stroke-width="3" points="474,-36 337,-36 337,0 474,0 474,-36"/>
<text text-anchor="middle" x="405.5" y="-14.9" font-family="monospace" font-size="12.00">contiguous_range</text>
</g>
<!-- random_access_range&#45;&gt;contiguous_range -->
<g id="edge10" class="edge">
<title>random_access_range&#45;&gt;contiguous_range</title>
<path fill="none" stroke="black" stroke-width="2" d="M404.73,-77.37C404.85,-68.2 405,-56.69 405.14,-46.31"/>
<polygon fill="black" stroke="black" stroke-width="2" points="408.64,-46.11 405.27,-36.06 401.64,-46.02 408.64,-46.11"/>
</g>
</g>
</svg>
