<?xml version="1.0" encoding="UTF-8" standalone="no"?>
<!DOCTYPE svg PUBLIC "-//W3C//DTD SVG 1.1//EN"
 "http://www.w3.org/Graphics/SVG/1.1/DTD/svg11.dtd">
<!-- Generated by graphviz version 2.43.20190912.0211 (20190912.0211)
 -->
<!-- Title: Concepts Pages: 1 -->
<svg width="595pt" height="404pt"
 viewBox="0.00 0.00 594.50 404.00" xmlns="http://www.w3.org/2000/svg" xmlns:xlink="http://www.w3.org/1999/xlink">
<g id="graph0" class="graph" transform="scale(1 1) rotate(0) translate(4 400)">
<title>Concepts</title>
<polygon fill="white" stroke="transparent" points="-4,4 -4,-400 590.5,-400 590.5,4 -4,4"/>
<!-- range -->
<g id="node1" class="node">
<title>range</title>
<polygon fill="none" stroke="blue" stroke-width="3" points="301.13,-383.56 261.5,-396 221.87,-383.56 221.9,-363.44 301.1,-363.44 301.13,-383.56"/>
<text text-anchor="middle" x="261.5" y="-374.9" font-family="Ubuntu Mono" font-size="12.00">range</text>
</g>
<!-- common_range -->
<g id="node2" class="node">
<title>common_range</title>
<polygon fill="none" stroke="blue" stroke-width="3" points="111,-252 0,-252 0,-216 111,-216 111,-252"/>
<text text-anchor="middle" x="55.5" y="-230.9" font-family="Ubuntu Mono" font-size="12.00">common_range</text>
</g>
<!-- range&#45;&gt;common_range -->
<g id="edge1" class="edge">
<title>range&#45;&gt;common_range</title>
<path fill="none" stroke="black" stroke-width="2" d="M221.81,-367.58C193.09,-359.39 154.41,-345.43 125.5,-324 102.6,-307.02 83.18,-280.71 70.65,-261.1"/>
<polygon fill="black" stroke="black" stroke-width="2" points="73.47,-259 65.22,-252.35 67.51,-262.69 73.47,-259"/>
</g>
<!-- output_range -->
<g id="node3" class="node">
<title>output_range</title>
<polygon fill="none" stroke="blue" stroke-width="3" points="168,-180 71,-180 71,-144 168,-144 168,-180"/>
<text text-anchor="middle" x="119.5" y="-158.9" font-family="Ubuntu Mono" font-size="12.00">output_range</text>
</g>
<!-- range&#45;&gt;output_range -->
<g id="edge2" class="edge">
<title>range&#45;&gt;output_range</title>
<path fill="none" stroke="black" stroke-width="2" d="M232.69,-363.29C216.1,-354.15 195.94,-340.74 182.5,-324 150.12,-283.66 132.78,-224.66 124.91,-190.42"/>
<polygon fill="black" stroke="black" stroke-width="2" points="128.24,-189.24 122.68,-180.22 121.4,-190.74 128.24,-189.24"/>
</g>
<!-- sized_range -->
<g id="node4" class="node">
<title>sized_range</title>
<polygon fill="none" stroke="blue" stroke-width="3" points="206.5,-108 118.5,-108 118.5,-72 206.5,-72 206.5,-108"/>
<text text-anchor="middle" x="162.5" y="-86.9" font-family="Ubuntu Mono" font-size="12.00">sized_range</text>
</g>
<!-- range&#45;&gt;sized_range -->
<g id="edge3" class="edge">
<title>range&#45;&gt;sized_range</title>
<path fill="none" stroke="black" stroke-width="2" d="M248.23,-363.25C239.17,-353.15 227.57,-338.67 220.5,-324 184.75,-249.81 196.8,-223.82 176.5,-144 174.36,-135.57 171.96,-126.4 169.76,-118.1"/>
<polygon fill="black" stroke="black" stroke-width="2" points="173.07,-116.93 167.12,-108.16 166.31,-118.73 173.07,-116.93"/>
</g>
<!-- disabled_size_range -->
<g id="node5" class="node">
<title>disabled_size_range</title>
<polygon fill="none" stroke="blue" stroke-width="3" points="302.5,-36 166.5,-36 166.5,0 302.5,0 302.5,-36"/>
<text text-anchor="middle" x="234.5" y="-14.9" font-family="Ubuntu Mono" font-size="12.00">disabled_size_range</text>
</g>
<!-- range&#45;&gt;disabled_size_range -->
<g id="edge4" class="edge">
<title>range&#45;&gt;disabled_size_range</title>
<path fill="none" stroke="black" stroke-width="2" d="M257.04,-363.06C249.37,-337.8 234.5,-282.68 234.5,-235 234.5,-235 234.5,-235 234.5,-161 234.5,-121 234.5,-74.65 234.5,-46.08"/>
<polygon fill="black" stroke="black" stroke-width="2" points="238,-46.05 234.5,-36.05 231,-46.05 238,-46.05"/>
</g>
<!-- view -->
<g id="node6" class="node">
<title>view</title>
<polygon fill="none" stroke="blue" stroke-width="3" points="316.5,-252 262.5,-252 262.5,-216 316.5,-216 316.5,-252"/>
<text text-anchor="middle" x="289.5" y="-230.9" font-family="Ubuntu Mono" font-size="12.00">view</text>
</g>
<!-- range&#45;&gt;view -->
<g id="edge5" class="edge">
<title>range&#45;&gt;view</title>
<path fill="none" stroke="black" stroke-width="2" d="M264.18,-363.38C268.76,-340.16 278.17,-292.47 284.14,-262.2"/>
<polygon fill="black" stroke="black" stroke-width="2" points="287.59,-262.78 286.09,-252.29 280.72,-261.43 287.59,-262.78"/>
</g>
<!-- enable_view -->
<g id="node8" class="node">
<title>enable_view</title>
<polygon fill="none" stroke="blue" stroke-width="3" points="371.5,-180 281.5,-180 281.5,-144 371.5,-144 371.5,-180"/>
<text text-anchor="middle" x="326.5" y="-158.9" font-family="Ubuntu Mono" font-size="12.00">enable_view</text>
</g>
<!-- range&#45;&gt;enable_view -->
<g id="edge6" class="edge">
<title>range&#45;&gt;enable_view</title>
<path fill="none" stroke="black" stroke-width="2" d="M271.34,-363.25C286.5,-341.1 314.95,-295.6 325.5,-252 330.43,-231.63 330.42,-207.87 329.31,-190.02"/>
<polygon fill="black" stroke="black" stroke-width="2" points="332.8,-189.71 328.55,-180.01 325.82,-190.25 332.8,-189.71"/>
</g>
<!-- view_base -->
<g id="node10" class="node">
<title>view_base</title>
<polygon fill="none" stroke="blue" stroke-width="3" points="416.5,-108 338.5,-108 338.5,-72 416.5,-72 416.5,-108"/>
<text text-anchor="middle" x="377.5" y="-86.9" font-family="Ubuntu Mono" font-size="12.00">view_base</text>
</g>
<!-- range&#45;&gt;view_base -->
<g id="edge7" class="edge">
<title>range&#45;&gt;view_base</title>
<path fill="none" stroke="black" stroke-width="2" d="M280.18,-363.39C292.63,-353.57 308.63,-339.37 319.5,-324 359.63,-267.25 366.67,-248.12 380.5,-180 384.65,-159.58 383.6,-135.99 381.67,-118.23"/>
<polygon fill="black" stroke="black" stroke-width="2" points="385.14,-117.75 380.43,-108.26 378.19,-118.61 385.14,-117.75"/>
</g>
<!-- input_range -->
<g id="node14" class="node">
<title>input_range</title>
<polygon fill="none" stroke="blue" stroke-width="3" points="519.5,-324 431.5,-324 431.5,-288 519.5,-288 519.5,-324"/>
<text text-anchor="middle" x="475.5" y="-302.9" font-family="Ubuntu Mono" font-size="12.00">input_range</text>
</g>
<!-- range&#45;&gt;input_range -->
<g id="edge9" class="edge">
<title>range&#45;&gt;input_range</title>
<path fill="none" stroke="black" stroke-width="2" d="M301.25,-364C335.09,-352.93 384.03,-336.92 421.43,-324.69"/>
<polygon fill="black" stroke="black" stroke-width="2" points="422.75,-327.94 431.16,-321.5 420.57,-321.29 422.75,-327.94"/>
</g>
<!-- forward_range -->
<g id="node7" class="node">
<title>forward_range</title>
<polygon fill="none" stroke="blue" stroke-width="3" points="546.5,-252 442.5,-252 442.5,-216 546.5,-216 546.5,-252"/>
<text text-anchor="middle" x="494.5" y="-230.9" font-family="Ubuntu Mono" font-size="12.00">forward_range</text>
</g>
<!-- bidirectional_range -->
<g id="node9" class="node">
<title>bidirectional_range</title>
<polygon fill="none" stroke="blue" stroke-width="3" points="568,-180 437,-180 437,-144 568,-144 568,-180"/>
<text text-anchor="middle" x="502.5" y="-158.9" font-family="Ubuntu Mono" font-size="12.00">bidirectional_range</text>
</g>
<!-- forward_range&#45;&gt;bidirectional_range -->
<g id="edge11" class="edge">
<title>forward_range&#45;&gt;bidirectional_range</title>
<path fill="none" stroke="black" stroke-width="2" d="M496.48,-215.7C497.36,-207.98 498.42,-198.71 499.4,-190.11"/>
<polygon fill="black" stroke="black" stroke-width="2" points="502.89,-190.44 500.55,-180.1 495.93,-189.64 502.89,-190.44"/>
</g>
<!-- random_access_range -->
<g id="node11" class="node">
<title>random_access_range</title>
<polygon fill="none" stroke="blue" stroke-width="3" points="586.5,-108 434.5,-108 434.5,-72 586.5,-72 586.5,-108"/>
<text text-anchor="middle" x="510.5" y="-86.9" font-family="Ubuntu Mono" font-size="12.00">random_access_range</text>
</g>
<!-- bidirectional_range&#45;&gt;random_access_range -->
<g id="edge12" class="edge">
<title>bidirectional_range&#45;&gt;random_access_range</title>
<path fill="none" stroke="black" stroke-width="2" d="M504.48,-143.7C505.36,-135.98 506.42,-126.71 507.4,-118.11"/>
<polygon fill="black" stroke="black" stroke-width="2" points="510.89,-118.44 508.55,-108.1 503.93,-117.64 510.89,-118.44"/>
</g>
<!-- viewable_base -->
<g id="node12" class="node">
<title>viewable_base</title>
<polygon fill="none" stroke="blue" stroke-width="3" points="429.5,-36 325.5,-36 325.5,0 429.5,0 429.5,-36"/>
<text text-anchor="middle" x="377.5" y="-14.9" font-family="Ubuntu Mono" font-size="12.00">viewable_base</text>
</g>
<!-- view_base&#45;&gt;viewable_base -->
<g id="edge8" class="edge">
<title>view_base&#45;&gt;viewable_base</title>
<path fill="none" stroke="black" stroke-width="2" d="M377.5,-71.7C377.5,-63.98 377.5,-54.71 377.5,-46.11"/>
<polygon fill="black" stroke="black" stroke-width="2" points="381,-46.1 377.5,-36.1 374,-46.1 381,-46.1"/>
</g>
<!-- contiguous_range -->
<g id="node13" class="node">
<title>contiguous_range</title>
<polygon fill="none" stroke="blue" stroke-width="3" points="572,-36 449,-36 449,0 572,0 572,-36"/>
<text text-anchor="middle" x="510.5" y="-14.9" font-family="Ubuntu Mono" font-size="12.00">contiguous_range</text>
</g>
<!-- random_access_range&#45;&gt;contiguous_range -->
<g id="edge13" class="edge">
<title>random_access_range&#45;&gt;contiguous_range</title>
<path fill="none" stroke="black" stroke-width="2" d="M510.5,-71.7C510.5,-63.98 510.5,-54.71 510.5,-46.11"/>
<polygon fill="black" stroke="black" stroke-width="2" points="514,-46.1 510.5,-36.1 507,-46.1 514,-46.1"/>
</g>
<!-- input_range&#45;&gt;forward_range -->
<g id="edge10" class="edge">
<title>input_range&#45;&gt;forward_range</title>
<path fill="none" stroke="black" stroke-width="2" d="M480.2,-287.7C482.31,-279.9 484.86,-270.51 487.22,-261.83"/>
<polygon fill="black" stroke="black" stroke-width="2" points="490.62,-262.67 489.86,-252.1 483.86,-260.84 490.62,-262.67"/>
</g>
</g>
</svg>
