<?xml version="1.0" encoding="UTF-8" standalone="no"?>
<!DOCTYPE svg PUBLIC "-//W3C//DTD SVG 1.1//EN"
 "http://www.w3.org/Graphics/SVG/1.1/DTD/svg11.dtd">
<!-- Generated by graphviz version 2.40.1 (20161225.0304)
 -->
<!-- Title: GG Pages: 1 -->
<svg width="2110pt" height="332pt"
 viewBox="1400.00 0.00 2110.34 332.00" xmlns="http://www.w3.org/2000/svg" xmlns:xlink="http://www.w3.org/1999/xlink">
<g id="graph0" class="graph" transform="scale(1 1) rotate(0) translate(4 328)">
<title>GG</title>
<polygon fill="#ffffff" stroke="transparent" points="1646,4 1646,-328 2106.3357,-328 2106.3357,4 1646,4"/>
<!-- node36 -->
<g id="node18" class="node">
<title>node36</title>
<polygon fill="none" stroke="#000000" points="1803.5036,-311.5623 1744.3017,-324 1685.0998,-311.5623 1685.155,-291.4377 1803.4484,-291.4377 1803.5036,-311.5623"/>
<a href="DepsLessA1.svg"><text text-anchor="middle" x="1744.3017" y="-302.9" font-family="Times,serif" font-size="12.00" fill="#000000">DepsLessA1</text></a>
</g>
<!-- node15 -->
<g id="node19" class="node">
<title>node15</title>
<polygon fill="none" stroke="#000000" points="1731.3017,-252 1664.2337,-234 1731.3017,-216 1798.3697,-234 1731.3017,-252"/>
<a href="DepsLessB1.svg"><text text-anchor="middle" x="1731.3017" y="-230.9" font-family="Times,serif" font-size="12.00" fill="#000000">DepsLessB1</text></a>
</g>
<!-- node36&#45;&gt;node15 -->
<g id="edge76" class="edge">
<title>node36&#45;&gt;node15</title>
<path fill="none" stroke="#000000" d="M1741.6709,-291.4297C1740.1181,-282.8295 1738.1021,-271.6638 1736.2611,-261.4672"/>
<polygon fill="#000000" stroke="#000000" points="1739.6538,-260.5592 1734.4326,-251.3403 1732.7652,-261.8031 1739.6538,-260.5592"/>
</g>
<!-- node24 -->
<g id="node29" class="node">
<title>node24</title>
<polygon fill="none" stroke="#000000" points="1883.3017,-252 1816.2337,-234 1883.3017,-216 1950.3697,-234 1883.3017,-252"/>
<a href="DepsLessB2.svg"><text text-anchor="middle" x="1883.3017" y="-230.9" font-family="Times,serif" font-size="12.00" fill="#000000">DepsLessB2</text></a>
</g>
<!-- node36&#45;&gt;node24 -->
<g id="edge92" class="edge">
<title>node36&#45;&gt;node24</title>
<path fill="none" stroke="#000000" d="M1772.4304,-291.4297C1795.2609,-279.6039 1827.4561,-262.9272 1851.2746,-250.5896"/>
<polygon fill="#000000" stroke="#000000" points="1853.0059,-253.6345 1860.2756,-245.9272 1849.7863,-247.4189 1853.0059,-253.6345"/>
</g>
<!-- node25 -->
<g id="node30" class="node">
<title>node25</title>
<polygon fill="none" stroke="#000000" points="1550.8017,-252 1473.8017,-252 1473.8017,-216 1550.8017,-216 1550.8017,-252"/>
<a href="DepsLessB3.svg"><text text-anchor="middle" x="1512.3017" y="-230.9" font-family="Times,serif" font-size="12.00" fill="#000000">DepsLessB3</text></a>
</g>
<!-- node36&#45;&gt;node25 -->
<g id="edge96" class="edge">
<title>node36&#45;&gt;node25</title>
<path fill="none" stroke="#000000" d="M1689.7011,-291.3273C1654.9845,-281.7087 1608.9325,-268.4192 1560.6278,-252.3379"/>
<polygon fill="#000000" stroke="#000000" points="1561.5335,-248.95 1550.9395,-249.0847 1559.3052,-255.5859 1561.5335,-248.95"/>
</g>
<!-- node8 -->
<g id="node31" class="node">
<title>node8</title>
<polygon fill="none" stroke="#000000" points="2035.3017,-252 1968.2337,-234 2035.3017,-216 2102.3697,-234 2035.3017,-252"/>
<a href="DepsLessB4.svg"><text text-anchor="middle" x="2035.3017" y="-230.9" font-family="Times,serif" font-size="12.00" fill="#000000">DepsLessB4</text></a>
</g>
<!-- node36&#45;&gt;node8 -->
<g id="edge98" class="edge">
<title>node36&#45;&gt;node8</title>
<path fill="none" stroke="#000000" d="M1803.1899,-291.4297C1858.5024,-277.7442 1940.071,-257.5622 1990.3313,-245.1267"/>
<polygon fill="#000000" stroke="#000000" points="1991.3879,-248.4709 2000.2546,-242.6715 1989.7066,-241.6758 1991.3879,-248.4709"/>
</g>
<!-- node7 -->
<g id="node32" class="node">
<title>node7</title>
<polygon fill="none" stroke="#000000" points="1645.8017,-252 1568.8017,-252 1568.8017,-216 1645.8017,-216 1645.8017,-252"/>
<a href="DepsLessB5.svg"><text text-anchor="middle" x="1607.3017" y="-230.9" font-family="Times,serif" font-size="12.00" fill="#000000">DepsLessB5</text></a>
</g>
<!-- node36&#45;&gt;node7 -->
<g id="edge102" class="edge">
<title>node36&#45;&gt;node7</title>
<path fill="none" stroke="#000000" d="M1716.5777,-291.4297C1697.6955,-281.5062 1672.3141,-268.1671 1650.7655,-256.8423"/>
<polygon fill="#000000" stroke="#000000" points="1652.2754,-253.682 1641.7952,-252.128 1649.0189,-259.8784 1652.2754,-253.682"/>
</g>
<!-- node6 -->
<g id="node20" class="node">
<title>node6</title>
<polygon fill="none" stroke="#000000" points="1674.8017,-180 1597.8017,-180 1597.8017,-144 1674.8017,-144 1674.8017,-180"/>
<a href="DepsLessC1.svg"><text text-anchor="middle" x="1636.3017" y="-158.9" font-family="Times,serif" font-size="12.00" fill="#000000">DepsLessC1</text></a>
</g>
<!-- node15&#45;&gt;node6 -->
<g id="edge77" class="edge">
<title>node15&#45;&gt;node6</title>
<path fill="none" stroke="#000000" d="M1713.4329,-220.4574C1700.7349,-210.8336 1683.3329,-197.6447 1668.2717,-186.2299"/>
<polygon fill="#000000" stroke="#000000" points="1670.2737,-183.3556 1660.1899,-180.1047 1666.0455,-188.9344 1670.2737,-183.3556"/>
</g>
<!-- node11 -->
<g id="node27" class="node">
<title>node11</title>
<polygon fill="none" stroke="#000000" points="1893.3017,-180 1826.2337,-162 1893.3017,-144 1960.3697,-162 1893.3017,-180"/>
<a href="DepsLessC2.svg"><text text-anchor="middle" x="1893.3017" y="-158.9" font-family="Times,serif" font-size="12.00" fill="#000000">DepsLessC2</text></a>
</g>
<!-- node15&#45;&gt;node11 -->
<g id="edge87" class="edge">
<title>node15&#45;&gt;node11</title>
<path fill="none" stroke="#000000" d="M1756.6142,-222.75C1783.9961,-210.5803 1827.8339,-191.0968 1858.4589,-177.4857"/>
<polygon fill="#000000" stroke="#000000" points="1860.1835,-180.5494 1867.9001,-173.2896 1857.3405,-174.1527 1860.1835,-180.5494"/>
</g>
<!-- node5 -->
<g id="node28" class="node">
<title>node5</title>
<polygon fill="none" stroke="#000000" points="1769.8017,-180 1692.8017,-180 1692.8017,-144 1769.8017,-144 1769.8017,-180"/>
<a href="DepsLessC3.svg"><text text-anchor="middle" x="1731.3017" y="-158.9" font-family="Times,serif" font-size="12.00" fill="#000000">DepsLessC3</text></a>
</g>
<!-- node15&#45;&gt;node5 -->
<g id="edge89" class="edge">
<title>node15&#45;&gt;node5</title>
<path fill="none" stroke="#000000" d="M1731.3017,-215.8314C1731.3017,-208.131 1731.3017,-198.9743 1731.3017,-190.4166"/>
<polygon fill="#000000" stroke="#000000" points="1734.8018,-190.4132 1731.3017,-180.4133 1727.8018,-190.4133 1734.8018,-190.4132"/>
</g>
<!-- node4 -->
<g id="node21" class="node">
<title>node4</title>
<polygon fill="none" stroke="#000000" points="1841.3017,-108 1773.4924,-90 1841.3017,-72 1909.111,-90 1841.3017,-108"/>
<a href="DepsLessD1.svg"><text text-anchor="middle" x="1841.3017" y="-86.9" font-family="Times,serif" font-size="12.00" fill="#000000">DepsLessD1</text></a>
</g>
<!-- node6&#45;&gt;node4 -->
<g id="edge78" class="edge">
<title>node6&#45;&gt;node4</title>
<path fill="none" stroke="#000000" d="M1675.0406,-147.3687C1678.1701,-146.2185 1681.2865,-145.0837 1684.3017,-144 1723.9536,-129.7492 1769.5129,-114.1661 1801.3044,-103.4188"/>
<polygon fill="#000000" stroke="#000000" points="1802.7617,-106.621 1811.1176,-100.1072 1800.5234,-99.9885 1802.7617,-106.621"/>
</g>
<!-- node33 -->
<g id="node26" class="node">
<title>node33</title>
<polygon fill="none" stroke="#000000" points="1687.3017,-108 1619.4924,-90 1687.3017,-72 1755.111,-90 1687.3017,-108"/>
<a href="DepsLessD2.svg"><text text-anchor="middle" x="1687.3017" y="-86.9" font-family="Times,serif" font-size="12.00" fill="#000000">DepsLessD2</text></a>
</g>
<!-- node6&#45;&gt;node33 -->
<g id="edge83" class="edge">
<title>node6&#45;&gt;node33</title>
<path fill="none" stroke="#000000" d="M1649.1711,-143.8314C1655.6529,-134.6807 1663.5912,-123.4737 1670.5433,-113.6589"/>
<polygon fill="#000000" stroke="#000000" points="1673.4133,-115.6623 1676.3374,-105.479 1667.7011,-111.6162 1673.4133,-115.6623"/>
</g>
<!-- node3 -->
<g id="node22" class="node">
<title>node3</title>
<polygon fill="none" stroke="#000000" points="1755.8017,-36 1678.8017,-36 1678.8017,0 1755.8017,0 1755.8017,-36"/>
<a href="DepsLessE1.svg"><text text-anchor="middle" x="1717.3017" y="-14.9" font-family="Times,serif" font-size="12.00" fill="#000000">DepsLessE1</text></a>
</g>
<!-- node4&#45;&gt;node3 -->
<g id="edge79" class="edge">
<title>node4&#45;&gt;node3</title>
<path fill="none" stroke="#000000" d="M1819.9853,-77.6228C1802.778,-67.6314 1778.085,-53.2936 1757.2263,-41.182"/>
<polygon fill="#000000" stroke="#000000" points="1758.96,-38.1415 1748.5546,-36.1468 1755.445,-44.195 1758.96,-38.1415"/>
</g>
<!-- node30 -->
<g id="node23" class="node">
<title>node30</title>
<polygon fill="none" stroke="#000000" points="1841.3017,-36 1774.2337,-18 1841.3017,0 1908.3697,-18 1841.3017,-36"/>
<a href="DepsLessE2.svg"><text text-anchor="middle" x="1841.3017" y="-14.9" font-family="Times,serif" font-size="12.00" fill="#000000">DepsLessE2</text></a>
</g>
<!-- node4&#45;&gt;node30 -->
<g id="edge80" class="edge">
<title>node4&#45;&gt;node30</title>
<path fill="none" stroke="#000000" d="M1841.3017,-71.8314C1841.3017,-64.131 1841.3017,-54.9743 1841.3017,-46.4166"/>
<polygon fill="#000000" stroke="#000000" points="1844.8018,-46.4132 1841.3017,-36.4133 1837.8018,-46.4133 1844.8018,-46.4132"/>
</g>
<!-- node2 -->
<g id="node24" class="node">
<title>node2</title>
<polygon fill="none" stroke="#000000" points="1660.8017,-36 1583.8017,-36 1583.8017,0 1660.8017,0 1660.8017,-36"/>
<a href="DepsLessE3.svg"><text text-anchor="middle" x="1622.3017" y="-14.9" font-family="Times,serif" font-size="12.00" fill="#000000">DepsLessE3</text></a>
</g>
<!-- node4&#45;&gt;node2 -->
<g id="edge81" class="edge">
<title>node4&#45;&gt;node2</title>
<path fill="none" stroke="#000000" d="M1809.3051,-80.4487C1776.7778,-70.6176 1724.7379,-54.5573 1670.7521,-36.0715"/>
<polygon fill="#000000" stroke="#000000" points="1671.6054,-32.6637 1661.0107,-32.7163 1669.3258,-39.2821 1671.6054,-32.6637"/>
</g>
<!-- node27 -->
<g id="node25" class="node">
<title>node27</title>
<polygon fill="none" stroke="#000000" points="1993.3017,-36 1926.2337,-18 1993.3017,0 2060.3697,-18 1993.3017,-36"/>
<a href="DepsLessE4.svg"><text text-anchor="middle" x="1993.3017" y="-14.9" font-family="Times,serif" font-size="12.00" fill="#000000">DepsLessE4</text></a>
</g>
<!-- node4&#45;&gt;node27 -->
<g id="edge82" class="edge">
<title>node4&#45;&gt;node27</title>
<path fill="none" stroke="#000000" d="M1865.7231,-78.432C1891.2072,-66.3606 1931.341,-47.3498 1959.782,-33.8778"/>
<polygon fill="#000000" stroke="#000000" points="1961.4018,-36.9833 1968.9409,-29.5393 1958.4052,-30.6572 1961.4018,-36.9833"/>
</g>
<!-- node33&#45;&gt;node3 -->
<g id="edge84" class="edge">
<title>node33&#45;&gt;node3</title>
<path fill="none" stroke="#000000" d="M1694.1092,-73.6621C1697.5734,-65.3478 1701.8787,-55.0152 1705.836,-45.5177"/>
<polygon fill="#000000" stroke="#000000" points="1709.1686,-46.6193 1709.784,-36.0423 1702.7071,-43.9269 1709.1686,-46.6193"/>
</g>
<!-- node33&#45;&gt;node30 -->
<g id="edge85" class="edge">
<title>node33&#45;&gt;node30</title>
<path fill="none" stroke="#000000" d="M1712.0445,-78.432C1737.8638,-66.3606 1778.5257,-47.3498 1807.3409,-33.8778"/>
<polygon fill="#000000" stroke="#000000" points="1809.0439,-36.9453 1816.6203,-29.5393 1806.0791,-30.6041 1809.0439,-36.9453"/>
</g>
<!-- node33&#45;&gt;node2 -->
<g id="edge86" class="edge">
<title>node33&#45;&gt;node2</title>
<path fill="none" stroke="#000000" d="M1674.148,-75.4297C1665.9092,-66.3037 1655.0624,-54.2888 1645.4206,-43.6086"/>
<polygon fill="#000000" stroke="#000000" points="1647.9662,-41.2053 1638.6672,-36.128 1642.7703,-45.896 1647.9662,-41.2053"/>
</g>
<!-- node11&#45;&gt;node4 -->
<g id="edge88" class="edge">
<title>node11&#45;&gt;node4</title>
<path fill="none" stroke="#000000" d="M1882.2738,-146.7307C1875.3107,-137.0894 1866.1742,-124.4389 1858.2962,-113.5309"/>
<polygon fill="#000000" stroke="#000000" points="1861.006,-111.3049 1852.3137,-105.2473 1855.3312,-115.4034 1861.006,-111.3049"/>
</g>
<!-- node5&#45;&gt;node30 -->
<g id="edge90" class="edge">
<title>node5&#45;&gt;node30</title>
<path fill="none" stroke="#000000" d="M1769.8476,-153.463C1821.8983,-141.5505 1909.2378,-120.0516 1918.3017,-108 1927.9188,-95.2128 1925.6845,-86.1949 1918.3017,-72 1909.5475,-55.1684 1892.8771,-42.4913 1877.28,-33.665"/>
<polygon fill="#000000" stroke="#000000" points="1878.7651,-30.4911 1868.2887,-28.9108 1875.493,-36.6793 1878.7651,-30.4911"/>
</g>
<!-- node5&#45;&gt;node2 -->
<g id="edge91" class="edge">
<title>node5&#45;&gt;node2</title>
<path fill="none" stroke="#000000" d="M1692.5718,-147.1633C1659.0484,-133.9322 1615.1846,-115.5263 1610.3017,-108 1598.3749,-89.6166 1602.9398,-64.6594 1609.6026,-45.6888"/>
<polygon fill="#000000" stroke="#000000" points="1612.9633,-46.7024 1613.3146,-36.1134 1606.4366,-44.1722 1612.9633,-46.7024"/>
</g>
<!-- node24&#45;&gt;node33 -->
<g id="edge95" class="edge">
<title>node24&#45;&gt;node33</title>
<path fill="none" stroke="#000000" d="M1866.2015,-220.5707C1852.7086,-209.8409 1833.5227,-194.286 1817.3017,-180 1799.8429,-164.6239 1797.8982,-157.9787 1779.3017,-144 1760.6436,-129.9751 1738.0587,-116.6715 1719.9356,-106.7781"/>
<polygon fill="#000000" stroke="#000000" points="1721.3752,-103.5785 1710.9094,-101.9297 1718.0627,-109.7452 1721.3752,-103.5785"/>
</g>
<!-- node24&#45;&gt;node11 -->
<g id="edge93" class="edge">
<title>node24&#45;&gt;node11</title>
<path fill="none" stroke="#000000" d="M1885.7224,-216.5708C1886.8442,-208.4942 1888.2044,-198.7004 1889.4612,-189.6514"/>
<polygon fill="#000000" stroke="#000000" points="1892.9596,-189.9047 1890.8686,-179.5182 1886.0261,-188.9416 1892.9596,-189.9047"/>
</g>
<!-- node24&#45;&gt;node5 -->
<g id="edge94" class="edge">
<title>node24&#45;&gt;node5</title>
<path fill="none" stroke="#000000" d="M1858.8803,-222.432C1837.2605,-212.191 1805.0968,-196.9556 1778.474,-184.3448"/>
<polygon fill="#000000" stroke="#000000" points="1779.8503,-181.1239 1769.3146,-180.0061 1776.8536,-187.4501 1779.8503,-181.1239"/>
</g>
<!-- node25&#45;&gt;node33 -->
<g id="edge97" class="edge">
<title>node25&#45;&gt;node33</title>
<path fill="none" stroke="#000000" d="M1524.6251,-215.6997C1538.4343,-196.177 1562.3164,-165.2049 1588.3017,-144 1607.4638,-128.363 1631.8218,-115.0092 1651.5814,-105.4929"/>
<polygon fill="#000000" stroke="#000000" points="1653.3021,-108.5517 1660.8693,-101.1363 1650.3294,-102.2143 1653.3021,-108.5517"/>
</g>
<!-- node8&#45;&gt;node33 -->
<g id="edge101" class="edge">
<title>node8&#45;&gt;node33</title>
<path fill="none" stroke="#000000" d="M2028.1395,-217.6901C2018.1377,-196.9761 1997.9389,-161.7926 1969.3017,-144 1890.7273,-95.1809 1854.931,-126.5357 1764.3017,-108 1754.1133,-105.9162 1743.2125,-103.4896 1732.9131,-101.1055"/>
<polygon fill="#000000" stroke="#000000" points="1733.3976,-97.6243 1722.8627,-98.7499 1731.8001,-104.4396 1733.3976,-97.6243"/>
</g>
<!-- node8&#45;&gt;node11 -->
<g id="edge99" class="edge">
<title>node8&#45;&gt;node11</title>
<path fill="none" stroke="#000000" d="M2011.8533,-222.1107C1988.4207,-210.2293 1952.1989,-191.8634 1925.9586,-178.5584"/>
<polygon fill="#000000" stroke="#000000" points="1927.2868,-175.3077 1916.7849,-173.907 1924.1211,-181.551 1927.2868,-175.3077"/>
</g>
<!-- node8&#45;&gt;node5 -->
<g id="edge100" class="edge">
<title>node8&#45;&gt;node5</title>
<path fill="none" stroke="#000000" d="M1999.5351,-225.529C1945.1196,-212.6411 1841.4062,-188.0774 1780.1097,-173.5598"/>
<polygon fill="#000000" stroke="#000000" points="1780.8202,-170.1313 1770.2828,-171.2324 1779.2069,-176.9429 1780.8202,-170.1313"/>
</g>
<!-- node7&#45;&gt;node6 -->
<g id="edge103" class="edge">
<title>node7&#45;&gt;node6</title>
<path fill="none" stroke="#000000" d="M1614.6196,-215.8314C1617.7893,-207.9617 1621.5716,-198.5712 1625.083,-189.8533"/>
<polygon fill="#000000" stroke="#000000" points="1628.3956,-190.9968 1628.8852,-180.4133 1621.9025,-188.3815 1628.3956,-190.9968"/>
</g>
<!-- node7&#45;&gt;node5 -->
<g id="edge104" class="edge">
<title>node7&#45;&gt;node5</title>
<path fill="none" stroke="#000000" d="M1638.5921,-215.8314C1654.5993,-206.5368 1674.2603,-195.1208 1691.3511,-185.1971"/>
<polygon fill="#000000" stroke="#000000" points="1693.1309,-188.211 1700.0213,-180.1628 1689.6159,-182.1575 1693.1309,-188.211"/>
</g>
<!-- node35 -->
<g id="node33" class="node">
<title>node35</title>
<polygon fill="none" stroke="#000000" points="1666.5036,-311.5623 1607.3017,-324 1548.0998,-311.5623 1548.155,-291.4377 1666.4484,-291.4377 1666.5036,-311.5623"/>
<a href="DepsLessA2.svg"><text text-anchor="middle" x="1607.3017" y="-302.9" font-family="Times,serif" font-size="12.00" fill="#000000">DepsLessA2</text></a>
</g>
<!-- node35&#45;&gt;node15 -->
<g id="edge105" class="edge">
<title>node35&#45;&gt;node15</title>
<path fill="none" stroke="#000000" d="M1632.3949,-291.4297C1652.2448,-279.904 1680.03,-263.7706 1701.0987,-251.5372"/>
<polygon fill="#000000" stroke="#000000" points="1703.0729,-254.4382 1709.9633,-246.39 1699.5579,-248.3847 1703.0729,-254.4382"/>
</g>
<!-- node35&#45;&gt;node25 -->
<g id="edge106" class="edge">
<title>node35&#45;&gt;node25</title>
<path fill="none" stroke="#000000" d="M1588.077,-291.4297C1575.5681,-281.9493 1558.9458,-269.3513 1544.4573,-258.3706"/>
<polygon fill="#000000" stroke="#000000" points="1546.3043,-255.3788 1536.2205,-252.128 1542.0762,-260.9576 1546.3043,-255.3788"/>
</g>
<!-- node35&#45;&gt;node7 -->
<g id="edge107" class="edge">
<title>node35&#45;&gt;node7</title>
<path fill="none" stroke="#000000" d="M1607.3017,-291.4297C1607.3017,-283.1011 1607.3017,-272.3665 1607.3017,-262.436"/>
<polygon fill="#000000" stroke="#000000" points="1610.8018,-262.1279 1607.3017,-252.128 1603.8018,-262.128 1610.8018,-262.1279"/>
</g>
<!-- node28 -->
<g id="node34" class="node">
<title>node28</title>
<polygon fill="none" stroke="#000000" points="1529.5036,-311.5623 1470.3017,-324 1411.0998,-311.5623 1411.155,-291.4377 1529.4484,-291.4377 1529.5036,-311.5623"/>
<a href="DepsLessA3.svg"><text text-anchor="middle" x="1470.3017" y="-302.9" font-family="Times,serif" font-size="12.00" fill="#000000">DepsLessA3</text></a>
</g>
<!-- node28&#45;&gt;node6 -->
<g id="edge110" class="edge">
<title>node28&#45;&gt;node6</title>
<path fill="none" stroke="#000000" d="M1464.0089,-291.3058C1456.8425,-272.036 1448.0837,-238.0902 1464.3017,-216 1479.0678,-195.8873 1542.1599,-179.881 1587.6536,-170.6678"/>
<polygon fill="#000000" stroke="#000000" points="1588.5125,-174.0658 1597.6452,-168.6951 1587.1566,-167.1984 1588.5125,-174.0658"/>
</g>
<!-- node28&#45;&gt;node24 -->
<g id="edge108" class="edge">
<title>node28&#45;&gt;node24</title>
<path fill="none" stroke="#000000" d="M1523.6442,-291.3998C1528.915,-290.1634 1534.2,-289.0042 1539.3017,-288 1657.2199,-264.7889 1689.1285,-273.8756 1807.3017,-252 1817.7087,-250.0735 1828.8348,-247.6484 1839.274,-245.2079"/>
<polygon fill="#000000" stroke="#000000" points="1840.1128,-248.6061 1849.0264,-242.8791 1838.4869,-241.7975 1840.1128,-248.6061"/>
</g>
<!-- node28&#45;&gt;node25 -->
<g id="edge109" class="edge">
<title>node28&#45;&gt;node25</title>
<path fill="none" stroke="#000000" d="M1478.801,-291.4297C1483.9178,-282.6581 1490.5914,-271.2177 1496.6341,-260.8587"/>
<polygon fill="#000000" stroke="#000000" points="1499.7115,-262.5293 1501.727,-252.128 1493.6651,-259.0022 1499.7115,-262.5293"/>
</g>
</g>
</svg>
