<?xml version="1.0" encoding="UTF-8" standalone="no"?>
<!DOCTYPE svg PUBLIC "-//W3C//DTD SVG 1.1//EN"
 "http://www.w3.org/Graphics/SVG/1.1/DTD/svg11.dtd">
<!-- Generated by graphviz version 2.40.1 (20161225.0304)
 -->
<!-- Title: GG Pages: 1 -->
<svg width="665pt" height="332pt"
 viewBox="0.00 0.00 665.05 332.00" xmlns="http://www.w3.org/2000/svg" xmlns:xlink="http://www.w3.org/1999/xlink">
<g id="graph0" class="graph" transform="scale(1 1) rotate(0) translate(4 328)">
<title>GG</title>
<polygon fill="#ffffff" stroke="transparent" points="-4,4 -4,-328 661.0495,-328 661.0495,4 -4,4"/>
<!-- node11 -->
<g id="node1" class="node">
<title>node11</title>
<polygon fill="none" stroke="#000000" points="423.7514,-311.5623 364.5495,-324 305.3475,-311.5623 305.4028,-291.4377 423.6961,-291.4377 423.7514,-311.5623"/>
<text text-anchor="middle" x="364.5495" y="-302.9" font-family="Times,serif" font-size="12.00" fill="#000000">DepsLessA1</text>
</g>
<!-- node7 -->
<g id="node2" class="node">
<title>node7</title>
<polygon fill="none" stroke="#000000" points="397.0495,-252 320.0495,-252 320.0495,-216 397.0495,-216 397.0495,-252"/>
<text text-anchor="middle" x="358.5495" y="-230.9" font-family="Times,serif" font-size="12.00" fill="#000000">DepsLessB1</text>
</g>
<!-- node11&#45;&gt;node7 -->
<g id="edge1" class="edge">
<title>node11&#45;&gt;node7</title>
<path fill="none" stroke="#000000" d="M363.3353,-291.4297C362.6338,-283.0125 361.7276,-272.1378 360.8927,-262.1194"/>
<polygon fill="#000000" stroke="#000000" points="364.3786,-261.8027 360.0601,-252.128 357.4028,-262.3841 364.3786,-261.8027"/>
</g>
<!-- node18 -->
<g id="node12" class="node">
<title>node18</title>
<polygon fill="none" stroke="#000000" points="492.0495,-252 415.0495,-252 415.0495,-216 492.0495,-216 492.0495,-252"/>
<text text-anchor="middle" x="453.5495" y="-230.9" font-family="Times,serif" font-size="12.00" fill="#000000">DepsLessB2</text>
</g>
<!-- node11&#45;&gt;node18 -->
<g id="edge17" class="edge">
<title>node11&#45;&gt;node18</title>
<path fill="none" stroke="#000000" d="M382.5599,-291.4297C394.1693,-282.0379 409.5606,-269.5865 423.0437,-258.6789"/>
<polygon fill="#000000" stroke="#000000" points="425.5681,-261.1385 431.1413,-252.128 421.1655,-255.6964 425.5681,-261.1385"/>
</g>
<!-- node12 -->
<g id="node13" class="node">
<title>node12</title>
<polygon fill="none" stroke="#000000" points="82.5495,-252 15.4814,-234 82.5495,-216 149.6175,-234 82.5495,-252"/>
<text text-anchor="middle" x="82.5495" y="-230.9" font-family="Times,serif" font-size="12.00" fill="#000000">DepsLessB3</text>
</g>
<!-- node11&#45;&gt;node12 -->
<g id="edge21" class="edge">
<title>node11&#45;&gt;node12</title>
<path fill="none" stroke="#000000" d="M308.8224,-291.4273C304.3327,-290.264 299.8658,-289.1101 295.5495,-288 237.4018,-273.0449 170.2464,-256.0686 127.1356,-245.2085"/>
<polygon fill="#000000" stroke="#000000" points="127.7998,-241.7666 117.2479,-242.7187 126.0905,-248.5547 127.7998,-241.7666"/>
</g>
<!-- node13 -->
<g id="node14" class="node">
<title>node13</title>
<polygon fill="none" stroke="#000000" points="577.5495,-252 510.4814,-234 577.5495,-216 644.6175,-234 577.5495,-252"/>
<text text-anchor="middle" x="577.5495" y="-230.9" font-family="Times,serif" font-size="12.00" fill="#000000">DepsLessB4</text>
</g>
<!-- node11&#45;&gt;node13 -->
<g id="edge23" class="edge">
<title>node11&#45;&gt;node13</title>
<path fill="none" stroke="#000000" d="M407.6532,-291.4297C445.7654,-278.5467 500.9081,-259.9069 537.933,-247.3915"/>
<polygon fill="#000000" stroke="#000000" points="539.5136,-250.5518 547.8662,-244.0338 537.272,-243.9204 539.5136,-250.5518"/>
</g>
<!-- node14 -->
<g id="node15" class="node">
<title>node14</title>
<polygon fill="none" stroke="#000000" points="234.5495,-252 167.4814,-234 234.5495,-216 301.6175,-234 234.5495,-252"/>
<text text-anchor="middle" x="234.5495" y="-230.9" font-family="Times,serif" font-size="12.00" fill="#000000">DepsLessB5</text>
</g>
<!-- node11&#45;&gt;node14 -->
<g id="edge27" class="edge">
<title>node11&#45;&gt;node14</title>
<path fill="none" stroke="#000000" d="M338.242,-291.4297C317.2086,-279.7804 287.6763,-263.4241 265.5058,-251.145"/>
<polygon fill="#000000" stroke="#000000" points="266.9448,-247.9411 256.5011,-246.1578 263.5533,-254.0646 266.9448,-247.9411"/>
</g>
<!-- node15 -->
<g id="node3" class="node">
<title>node15</title>
<polygon fill="none" stroke="#000000" points="206.5495,-180 139.4814,-162 206.5495,-144 273.6175,-162 206.5495,-180"/>
<text text-anchor="middle" x="206.5495" y="-158.9" font-family="Times,serif" font-size="12.00" fill="#000000">DepsLessC1</text>
</g>
<!-- node7&#45;&gt;node15 -->
<g id="edge2" class="edge">
<title>node7&#45;&gt;node15</title>
<path fill="none" stroke="#000000" d="M320.1934,-215.8314C295.613,-204.188 264.0041,-189.2153 240.3648,-178.0178"/>
<polygon fill="#000000" stroke="#000000" points="241.6227,-174.7409 231.087,-173.623 238.6261,-181.067 241.6227,-174.7409"/>
</g>
<!-- node19 -->
<g id="node10" class="node">
<title>node19</title>
<polygon fill="none" stroke="#000000" points="559.0495,-180 482.0495,-180 482.0495,-144 559.0495,-144 559.0495,-180"/>
<text text-anchor="middle" x="520.5495" y="-158.9" font-family="Times,serif" font-size="12.00" fill="#000000">DepsLessC2</text>
</g>
<!-- node7&#45;&gt;node19 -->
<g id="edge12" class="edge">
<title>node7&#45;&gt;node19</title>
<path fill="none" stroke="#000000" d="M397.3525,-216.7542C419.9123,-206.7276 448.5309,-194.0082 472.5057,-183.3528"/>
<polygon fill="#000000" stroke="#000000" points="474.066,-186.4895 481.7826,-179.2297 471.223,-180.0928 474.066,-186.4895"/>
</g>
<!-- node5 -->
<g id="node11" class="node">
<title>node5</title>
<polygon fill="none" stroke="#000000" points="358.5495,-180 291.4814,-162 358.5495,-144 425.6175,-162 358.5495,-180"/>
<text text-anchor="middle" x="358.5495" y="-158.9" font-family="Times,serif" font-size="12.00" fill="#000000">DepsLessC3</text>
</g>
<!-- node7&#45;&gt;node5 -->
<g id="edge14" class="edge">
<title>node7&#45;&gt;node5</title>
<path fill="none" stroke="#000000" d="M358.5495,-215.8314C358.5495,-208.131 358.5495,-198.9743 358.5495,-190.4166"/>
<polygon fill="#000000" stroke="#000000" points="362.0496,-190.4132 358.5495,-180.4133 355.0496,-190.4133 362.0496,-190.4132"/>
</g>
<!-- node17 -->
<g id="node4" class="node">
<title>node17</title>
<polygon fill="none" stroke="#000000" points="440.5495,-108 372.7402,-90 440.5495,-72 508.3588,-90 440.5495,-108"/>
<text text-anchor="middle" x="440.5495" y="-86.9" font-family="Times,serif" font-size="12.00" fill="#000000">DepsLessD1</text>
</g>
<!-- node15&#45;&gt;node17 -->
<g id="edge3" class="edge">
<title>node15&#45;&gt;node17</title>
<path fill="none" stroke="#000000" d="M238.1077,-152.2898C279.8315,-139.4517 353.4305,-116.8058 399.4558,-102.6442"/>
<polygon fill="#000000" stroke="#000000" points="400.5899,-105.9573 409.1184,-99.6711 398.5313,-99.2668 400.5899,-105.9573"/>
</g>
<!-- node3 -->
<g id="node9" class="node">
<title>node3</title>
<polygon fill="none" stroke="#000000" points="286.5495,-108 218.7402,-90 286.5495,-72 354.3588,-90 286.5495,-108"/>
<text text-anchor="middle" x="286.5495" y="-86.9" font-family="Times,serif" font-size="12.00" fill="#000000">DepsLessD2</text>
</g>
<!-- node15&#45;&gt;node3 -->
<g id="edge8" class="edge">
<title>node15&#45;&gt;node3</title>
<path fill="none" stroke="#000000" d="M221.9743,-148.1177C233.7404,-137.5282 250.1384,-122.77 263.4654,-110.7757"/>
<polygon fill="#000000" stroke="#000000" points="265.8075,-113.3766 270.8991,-104.0854 261.1247,-108.1735 265.8075,-113.3766"/>
</g>
<!-- node4 -->
<g id="node5" class="node">
<title>node4</title>
<polygon fill="none" stroke="#000000" points="342.5495,-36 275.4814,-18 342.5495,0 409.6175,-18 342.5495,-36"/>
<text text-anchor="middle" x="342.5495" y="-14.9" font-family="Times,serif" font-size="12.00" fill="#000000">DepsLessE1</text>
</g>
<!-- node17&#45;&gt;node4 -->
<g id="edge4" class="edge">
<title>node17&#45;&gt;node4</title>
<path fill="none" stroke="#000000" d="M422.1164,-76.4574C407.1019,-65.4263 385.712,-49.7113 368.8908,-37.3528"/>
<polygon fill="#000000" stroke="#000000" points="370.6999,-34.3389 360.5688,-31.2387 366.5553,-39.9801 370.6999,-34.3389"/>
</g>
<!-- node2 -->
<g id="node6" class="node">
<title>node2</title>
<polygon fill="none" stroke="#000000" points="494.5495,-36 427.4814,-18 494.5495,0 561.6175,-18 494.5495,-36"/>
<text text-anchor="middle" x="494.5495" y="-14.9" font-family="Times,serif" font-size="12.00" fill="#000000">DepsLessE2</text>
</g>
<!-- node17&#45;&gt;node2 -->
<g id="edge5" class="edge">
<title>node17&#45;&gt;node2</title>
<path fill="none" stroke="#000000" d="M452.0015,-74.7307C459.2324,-65.0894 468.7203,-52.4389 476.9013,-41.5309"/>
<polygon fill="#000000" stroke="#000000" points="479.9139,-43.3474 483.114,-33.2473 474.3139,-39.1473 479.9139,-43.3474"/>
</g>
<!-- node1 -->
<g id="node7" class="node">
<title>node1</title>
<polygon fill="none" stroke="#000000" points="190.5495,-36 123.4814,-18 190.5495,0 257.6175,-18 190.5495,-36"/>
<text text-anchor="middle" x="190.5495" y="-14.9" font-family="Times,serif" font-size="12.00" fill="#000000">DepsLessE3</text>
</g>
<!-- node17&#45;&gt;node1 -->
<g id="edge6" class="edge">
<title>node17&#45;&gt;node1</title>
<path fill="none" stroke="#000000" d="M407.8663,-80.5873C363.0421,-67.6779 282.4341,-44.4628 232.9934,-30.2238"/>
<polygon fill="#000000" stroke="#000000" points="233.8187,-26.8193 223.2406,-27.4151 231.8814,-33.5459 233.8187,-26.8193"/>
</g>
<!-- node8 -->
<g id="node8" class="node">
<title>node8</title>
<polygon fill="none" stroke="#000000" points="657.0495,-36 580.0495,-36 580.0495,0 657.0495,0 657.0495,-36"/>
<text text-anchor="middle" x="618.5495" y="-14.9" font-family="Times,serif" font-size="12.00" fill="#000000">DepsLessE4</text>
</g>
<!-- node17&#45;&gt;node8 -->
<g id="edge7" class="edge">
<title>node17&#45;&gt;node8</title>
<path fill="none" stroke="#000000" d="M467.5838,-79.0647C494.8474,-68.0368 537.512,-50.7792 570.5401,-37.4195"/>
<polygon fill="#000000" stroke="#000000" points="572.0573,-40.5814 580.0152,-33.5869 569.4324,-34.0921 572.0573,-40.5814"/>
</g>
<!-- node3&#45;&gt;node4 -->
<g id="edge9" class="edge">
<title>node3&#45;&gt;node4</title>
<path fill="none" stroke="#000000" d="M298.4256,-74.7307C305.9986,-64.9939 315.9588,-52.1881 324.4992,-41.2074"/>
<polygon fill="#000000" stroke="#000000" points="327.3137,-43.2897 330.6904,-33.2473 321.7882,-38.9921 327.3137,-43.2897"/>
</g>
<!-- node3&#45;&gt;node2 -->
<g id="edge10" class="edge">
<title>node3&#45;&gt;node2</title>
<path fill="none" stroke="#000000" d="M316.3508,-79.6842C352.9835,-67.0036 415.2438,-45.452 455.624,-31.4742"/>
<polygon fill="#000000" stroke="#000000" points="456.8345,-34.759 465.1395,-28.1804 454.5447,-28.1441 456.8345,-34.759"/>
</g>
<!-- node3&#45;&gt;node1 -->
<g id="edge11" class="edge">
<title>node3&#45;&gt;node1</title>
<path fill="none" stroke="#000000" d="M268.4926,-76.4574C253.877,-65.4956 233.0945,-49.9088 216.6646,-37.5864"/>
<polygon fill="#000000" stroke="#000000" points="218.6254,-34.682 208.5254,-31.4819 214.4254,-40.282 218.6254,-34.682"/>
</g>
<!-- node19&#45;&gt;node17 -->
<g id="edge13" class="edge">
<title>node19&#45;&gt;node17</title>
<path fill="none" stroke="#000000" d="M500.3621,-143.8314C489.2299,-133.8124 475.3586,-121.3282 463.7778,-110.9055"/>
<polygon fill="#000000" stroke="#000000" points="465.9623,-108.1628 456.188,-104.0747 461.2796,-113.3659 465.9623,-108.1628"/>
</g>
<!-- node5&#45;&gt;node2 -->
<g id="edge15" class="edge">
<title>node5&#45;&gt;node2</title>
<path fill="none" stroke="#000000" d="M396.941,-154.3009C439.2685,-144.9414 503.2871,-127.9063 517.5495,-108 531.4331,-88.6224 521.6163,-61.6173 510.8395,-42.2531"/>
<polygon fill="#000000" stroke="#000000" points="513.7023,-40.2204 505.5715,-33.4277 507.6917,-43.8082 513.7023,-40.2204"/>
</g>
<!-- node5&#45;&gt;node1 -->
<g id="edge16" class="edge">
<title>node5&#45;&gt;node1</title>
<path fill="none" stroke="#000000" d="M323.2097,-153.4277C284.1429,-143.248 224.7123,-125.4431 209.5495,-108 194.787,-91.0175 190.5193,-65.4638 189.6658,-45.9192"/>
<polygon fill="#000000" stroke="#000000" points="193.163,-45.7127 189.498,-35.7719 186.164,-45.8285 193.163,-45.7127"/>
</g>
<!-- node18&#45;&gt;node3 -->
<g id="edge20" class="edge">
<title>node18&#45;&gt;node3</title>
<path fill="none" stroke="#000000" d="M454.5962,-215.8756C454.7516,-195.9229 451.9193,-164.0256 434.5495,-144 420.7713,-128.1152 370.1533,-111.8316 331.9196,-101.3586"/>
<polygon fill="#000000" stroke="#000000" points="332.5672,-97.9085 322.0016,-98.6946 330.7513,-104.6689 332.5672,-97.9085"/>
</g>
<!-- node18&#45;&gt;node19 -->
<g id="edge18" class="edge">
<title>node18&#45;&gt;node19</title>
<path fill="none" stroke="#000000" d="M470.4564,-215.8314C478.3307,-207.3694 487.8415,-197.1489 496.4508,-187.8971"/>
<polygon fill="#000000" stroke="#000000" points="499.1648,-190.1183 503.4149,-180.4133 494.0403,-185.3497 499.1648,-190.1183"/>
</g>
<!-- node18&#45;&gt;node5 -->
<g id="edge19" class="edge">
<title>node18&#45;&gt;node5</title>
<path fill="none" stroke="#000000" d="M429.577,-215.8314C415.8301,-205.4127 398.566,-192.3283 384.5007,-181.6683"/>
<polygon fill="#000000" stroke="#000000" points="386.3002,-178.6405 376.2164,-175.3897 382.0721,-184.2193 386.3002,-178.6405"/>
</g>
<!-- node12&#45;&gt;node3 -->
<g id="edge22" class="edge">
<title>node12&#45;&gt;node3</title>
<path fill="none" stroke="#000000" d="M87.412,-216.9742C94.0047,-196.8268 107.6617,-163.5553 130.5495,-144 159.2814,-119.4515 199.8024,-105.8653 232.3452,-98.4614"/>
<polygon fill="#000000" stroke="#000000" points="233.122,-101.8744 242.1667,-96.3568 231.6553,-95.0298 233.122,-101.8744"/>
</g>
<!-- node13&#45;&gt;node3 -->
<g id="edge26" class="edge">
<title>node13&#45;&gt;node3</title>
<path fill="none" stroke="#000000" d="M581.3343,-216.9769C584.7218,-196.8321 586.7128,-163.5631 568.5495,-144 537.079,-110.1043 408.8641,-117.2678 363.5495,-108 353.3611,-105.9162 342.4603,-103.4896 332.1609,-101.1055"/>
<polygon fill="#000000" stroke="#000000" points="332.6453,-97.6243 322.1105,-98.7499 331.0479,-104.4396 332.6453,-97.6243"/>
</g>
<!-- node13&#45;&gt;node19 -->
<g id="edge24" class="edge">
<title>node13&#45;&gt;node19</title>
<path fill="none" stroke="#000000" d="M565.739,-219.0816C558.6889,-210.1762 549.535,-198.6134 541.3112,-188.2254"/>
<polygon fill="#000000" stroke="#000000" points="543.9245,-185.8875 534.9733,-180.2195 538.4362,-190.2325 543.9245,-185.8875"/>
</g>
<!-- node13&#45;&gt;node5 -->
<g id="edge25" class="edge">
<title>node13&#45;&gt;node5</title>
<path fill="none" stroke="#000000" d="M547.0985,-223.9887C508.2815,-211.227 441.0865,-189.1355 398.277,-175.0611"/>
<polygon fill="#000000" stroke="#000000" points="399.3348,-171.7246 388.7419,-171.9263 397.1485,-178.3745 399.3348,-171.7246"/>
</g>
<!-- node14&#45;&gt;node15 -->
<g id="edge28" class="edge">
<title>node14&#45;&gt;node15</title>
<path fill="none" stroke="#000000" d="M228.1958,-217.6621C224.8075,-208.9491 220.5571,-198.0196 216.7218,-188.1575"/>
<polygon fill="#000000" stroke="#000000" points="219.9588,-186.8244 213.0723,-178.7729 213.4348,-189.3615 219.9588,-186.8244"/>
</g>
<!-- node14&#45;&gt;node5 -->
<g id="edge29" class="edge">
<title>node14&#45;&gt;node5</title>
<path fill="none" stroke="#000000" d="M255.8658,-221.6228C275.8279,-210.0319 305.8639,-192.5916 328.3012,-179.5635"/>
<polygon fill="#000000" stroke="#000000" points="330.2059,-182.5048 337.0963,-174.4567 326.6909,-176.4513 330.2059,-182.5048"/>
</g>
<!-- node10 -->
<g id="node16" class="node">
<title>node10</title>
<polygon fill="none" stroke="#000000" points="286.7514,-311.5623 227.5495,-324 168.3475,-311.5623 168.4028,-291.4377 286.6961,-291.4377 286.7514,-311.5623"/>
<text text-anchor="middle" x="227.5495" y="-302.9" font-family="Times,serif" font-size="12.00" fill="#000000">DepsLessA2</text>
</g>
<!-- node10&#45;&gt;node7 -->
<g id="edge30" class="edge">
<title>node10&#45;&gt;node7</title>
<path fill="none" stroke="#000000" d="M254.0593,-291.4297C272.0339,-281.5505 296.1678,-268.2861 316.713,-256.9941"/>
<polygon fill="#000000" stroke="#000000" points="318.4889,-260.0119 325.5666,-252.128 315.1172,-253.8774 318.4889,-260.0119"/>
</g>
<!-- node10&#45;&gt;node12 -->
<g id="edge31" class="edge">
<title>node10&#45;&gt;node12</title>
<path fill="none" stroke="#000000" d="M198.2066,-291.4297C174.1384,-279.4787 140.0934,-262.5736 115.1728,-250.1992"/>
<polygon fill="#000000" stroke="#000000" points="116.6215,-247.0108 106.1083,-245.6982 113.5083,-253.2805 116.6215,-247.0108"/>
</g>
<!-- node10&#45;&gt;node14 -->
<g id="edge32" class="edge">
<title>node10&#45;&gt;node14</title>
<path fill="none" stroke="#000000" d="M228.966,-291.4297C229.7962,-282.8905 230.8723,-271.8221 231.8579,-261.6843"/>
<polygon fill="#000000" stroke="#000000" points="235.354,-261.8934 232.8382,-251.6017 228.3869,-261.216 235.354,-261.8934"/>
</g>
<!-- node9 -->
<g id="node17" class="node">
<title>node9</title>
<polygon fill="none" stroke="#000000" points="141.7514,-311.5623 82.5495,-324 23.3475,-311.5623 23.4028,-291.4377 141.6961,-291.4377 141.7514,-311.5623"/>
<text text-anchor="middle" x="82.5495" y="-302.9" font-family="Times,serif" font-size="12.00" fill="#000000">DepsLessA3</text>
</g>
<!-- node9&#45;&gt;node15 -->
<g id="edge35" class="edge">
<title>node9&#45;&gt;node15</title>
<path fill="none" stroke="#000000" d="M48.93,-291.3063C33.0029,-282.4187 15.5329,-269.4031 6.5495,-252 -.7896,-237.7825 -3.1786,-228.703 6.5495,-216 24.0625,-193.1313 97.9578,-177.7397 150.8235,-169.4213"/>
<polygon fill="#000000" stroke="#000000" points="151.4064,-172.8729 160.7621,-167.901 150.3479,-165.9534 151.4064,-172.8729"/>
</g>
<!-- node9&#45;&gt;node18 -->
<g id="edge33" class="edge">
<title>node9&#45;&gt;node18</title>
<path fill="none" stroke="#000000" d="M141.7161,-291.6345C147.7253,-290.3359 153.7493,-289.0986 159.5495,-288 265.3559,-267.9599 297.3423,-279.2963 405.0766,-252.0929"/>
<polygon fill="#000000" stroke="#000000" points="406.2333,-255.4092 415.0423,-249.5226 404.4851,-248.631 406.2333,-255.4092"/>
</g>
<!-- node9&#45;&gt;node12 -->
<g id="edge34" class="edge">
<title>node9&#45;&gt;node12</title>
<path fill="none" stroke="#000000" d="M82.5495,-291.4297C82.5495,-283.1011 82.5495,-272.3665 82.5495,-262.436"/>
<polygon fill="#000000" stroke="#000000" points="86.0496,-262.1279 82.5495,-252.128 79.0496,-262.128 86.0496,-262.1279"/>
</g>
</g>
</svg>
