<?xml version="1.0" encoding="UTF-8" standalone="no"?>
<!DOCTYPE svg PUBLIC "-//W3C//DTD SVG 1.1//EN"
 "http://www.w3.org/Graphics/SVG/1.1/DTD/svg11.dtd">
<!-- Generated by graphviz version 2.40.1 (20161225.0304)
 -->
<!-- Title: GG Pages: 1 -->
<svg width="1425pt" height="332pt"
 viewBox="0.00 0.00 1425 332.00" xmlns="http://www.w3.org/2000/svg" xmlns:xlink="http://www.w3.org/1999/xlink">
<g id="graph0" class="graph" transform="scale(1 1) rotate(0) translate(4 328)">
<title>GG</title>
<polygon fill="#ffffff" stroke="transparent" points="-4,4 -4,-328 2106.3357,-328 2106.3357,4 -4,4"/>
<!-- node16 -->
<g id="node1" class="node">
<title>node16</title>
<polygon fill="none" stroke="#000000" points="685.4379,-311.5623 628.3017,-324 571.1655,-311.5623 571.2188,-291.4377 685.3845,-291.4377 685.4379,-311.5623"/>
<a href="DepsFullA1.svg"><text text-anchor="middle" x="628.3017" y="-302.9" font-family="Times,serif" font-size="12.00" fill="#000000">DepsFullA1</text></a>
</g>
<!-- node20 -->
<g id="node2" class="node">
<title>node20</title>
<polygon fill="none" stroke="#000000" points="766.3017,-252 701.957,-234 766.3017,-216 830.6464,-234 766.3017,-252"/>
<a href="DepsFullB1.svg"><text text-anchor="middle" x="766.3017" y="-230.9" font-family="Times,serif" font-size="12.00" fill="#000000">DepsFullB1</text></a>
</g>
<!-- node16&#45;&gt;node20 -->
<g id="edge1" class="edge">
<title>node16&#45;&gt;node20</title>
<path fill="none" stroke="#000000" d="M656.228,-291.4297C678.8943,-279.6039 710.8579,-262.9272 734.505,-250.5896"/>
<polygon fill="#000000" stroke="#000000" points="736.1944,-253.656 743.4412,-245.9272 732.9564,-247.4499 736.1944,-253.656"/>
</g>
<!-- node21 -->
<g id="node3" class="node">
<title>node21</title>
<polygon fill="none" stroke="#000000" points="986.3017,-180 912.3017,-180 912.3017,-144 986.3017,-144 986.3017,-180"/>
<a href="DepsFullC1.svg"><text text-anchor="middle" x="949.3017" y="-158.9" font-family="Times,serif" font-size="12.00" fill="#000000">DepsFullC1</text></a>
</g>
<!-- node16&#45;&gt;node21 -->
<g id="edge54" class="edge">
<title>node16&#45;&gt;node21</title>
<path fill="none" stroke="#000000" d="M685.5069,-298.716C750.3372,-289.6322 851.1783,-272.7429 883.3017,-252 907.016,-236.6871 925.1142,-209.6552 936.3082,-189.202"/>
<polygon fill="#000000" stroke="#000000" points="939.4145,-190.8146 940.9609,-180.3332 933.2158,-187.5626 939.4145,-190.8146"/>
</g>
<!-- node22 -->
<g id="node4" class="node">
<title>node22</title>
<polygon fill="none" stroke="#000000" points="520.3017,-108 455.2153,-90 520.3017,-72 585.3881,-90 520.3017,-108"/>
<a href="DepsFullD1.svg"><text text-anchor="middle" x="520.3017" y="-86.9" font-family="Times,serif" font-size="12.00" fill="#000000">DepsFullD1</text></a>
</g>
<!-- node16&#45;&gt;node22 -->
<g id="edge57" class="edge">
<title>node16&#45;&gt;node22</title>
<path fill="none" stroke="#000000" d="M571.1455,-303.604C452.0933,-298.0257 186.2992,-282.2843 159.3017,-252 68.4874,-150.1295 336.0286,-108.8078 460.4235,-95.4085"/>
<polygon fill="#000000" stroke="#000000" points="460.9842,-98.8689 470.564,-94.3439 460.2532,-91.9072 460.9842,-98.8689"/>
</g>
<!-- node26 -->
<g id="node5" class="node">
<title>node26</title>
<polygon fill="none" stroke="#000000" points="764.3017,-36 690.3017,-36 690.3017,0 764.3017,0 764.3017,-36"/>
<a href="DepsFullE1.svg"><text text-anchor="middle" x="727.3017" y="-14.9" font-family="Times,serif" font-size="12.00" fill="#000000">DepsFullE1</text></a>
</g>
<!-- node16&#45;&gt;node26 -->
<g id="edge59" class="edge">
<title>node16&#45;&gt;node26</title>
<path fill="none" stroke="#000000" d="M570.9327,-303.8968C447.747,-298.7904 166.748,-283.7534 138.3017,-252 127.6256,-240.0827 136.3468,-231.8801 138.3017,-216 142.3319,-183.2623 137.7895,-171.3001 156.3017,-144 187.0382,-98.6726 205.2238,-91.7576 256.3017,-72 275.9317,-64.4069 564.9681,-34.4651 680.2971,-22.7423"/>
<polygon fill="#000000" stroke="#000000" points="680.6571,-26.2239 690.2525,-21.7318 679.9502,-19.2596 680.6571,-26.2239"/>
</g>
<!-- node29 -->
<g id="node6" class="node">
<title>node29</title>
<polygon fill="none" stroke="#000000" points="473.3017,-36 408.957,-18 473.3017,0 537.6464,-18 473.3017,-36"/>
<a href="DepsFullE2.svg"><text text-anchor="middle" x="473.3017" y="-14.9" font-family="Times,serif" font-size="12.00" fill="#000000">DepsFullE2</text></a>
</g>
<!-- node16&#45;&gt;node29 -->
<g id="edge60" class="edge">
<title>node16&#45;&gt;node29</title>
<path fill="none" stroke="#000000" d="M570.8241,-304.0146C445.8798,-299.1071 158.3687,-284.3823 129.3017,-252 73.5098,-189.8448 114.2804,-119.0326 183.3017,-72 220.0838,-46.9359 340.618,-31.0126 414.2107,-23.3725"/>
<polygon fill="#000000" stroke="#000000" points="414.6753,-26.8434 424.2698,-22.3493 413.9669,-19.8793 414.6753,-26.8434"/>
</g>
<!-- node31 -->
<g id="node7" class="node">
<title>node31</title>
<polygon fill="none" stroke="#000000" points="1197.3017,-36 1123.3017,-36 1123.3017,0 1197.3017,0 1197.3017,-36"/>
<a href="DepsFullE3.svg"><text text-anchor="middle" x="1160.3017" y="-14.9" font-family="Times,serif" font-size="12.00" fill="#000000">DepsFullE3</text></a>
</g>
<!-- node16&#45;&gt;node31 -->
<g id="edge61" class="edge">
<title>node16&#45;&gt;node31</title>
<path fill="none" stroke="#000000" d="M685.578,-303.5247C824.6888,-296.1431 1173.7708,-268.9401 1239.3017,-180 1267.8522,-141.2506 1270.6997,-114.0616 1247.3017,-72 1238.416,-56.0266 1222.6336,-44.1733 1206.9278,-35.7073"/>
<polygon fill="#000000" stroke="#000000" points="1208.2509,-32.4556 1197.7421,-31.1085 1205.1171,-38.715 1208.2509,-32.4556"/>
</g>
<!-- node32 -->
<g id="node8" class="node">
<title>node32</title>
<polygon fill="none" stroke="#000000" points="158.3017,-36 93.957,-18 158.3017,0 222.6464,-18 158.3017,-36"/>
<a href="DepsFullE4.svg"><text text-anchor="middle" x="158.3017" y="-14.9" font-family="Times,serif" font-size="12.00" fill="#000000">DepsFullE4</text></a>
</g>
<!-- node16&#45;&gt;node32 -->
<g id="edge62" class="edge">
<title>node16&#45;&gt;node32</title>
<path fill="none" stroke="#000000" d="M571.0236,-302.9878C443.2346,-295.8569 143.0041,-276.6738 104.3017,-252 29.5404,-204.3377 -31.8581,-145.1091 18.3017,-72 29.5841,-55.5556 77.4472,-39.4659 114.0999,-29.1886"/>
<polygon fill="#000000" stroke="#000000" points="115.3812,-32.4666 124.1009,-26.4485 113.5315,-25.7154 115.3812,-32.4666"/>
</g>
<!-- node23 -->
<g id="node9" class="node">
<title>node23</title>
<polygon fill="none" stroke="#000000" points="820.3017,-108 755.2153,-90 820.3017,-72 885.3881,-90 820.3017,-108"/>
<a href="DepsFullD2.svg"><text text-anchor="middle" x="820.3017" y="-86.9" font-family="Times,serif" font-size="12.00" fill="#000000">DepsFullD2</text></a>
</g>
<!-- node16&#45;&gt;node23 -->
<g id="edge58" class="edge">
<title>node16&#45;&gt;node23</title>
<path fill="none" stroke="#000000" d="M685.4171,-299.254C741.2588,-291.3447 820.549,-276.1563 839.3017,-252 870.121,-212.3 849.0751,-149.7828 833.2655,-115.1674"/>
<polygon fill="#000000" stroke="#000000" points="836.2538,-113.3021 828.7917,-105.7809 829.9348,-116.3139 836.2538,-113.3021"/>
</g>
<!-- node9 -->
<g id="node10" class="node">
<title>node9</title>
<polygon fill="none" stroke="#000000" points="320.3017,-180 255.957,-162 320.3017,-144 384.6464,-162 320.3017,-180"/>
<a href="DepsFullC2.svg"><text text-anchor="middle" x="320.3017" y="-158.9" font-family="Times,serif" font-size="12.00" fill="#000000">DepsFullC2</text></a>
</g>
<!-- node16&#45;&gt;node9 -->
<g id="edge55" class="edge">
<title>node16&#45;&gt;node9</title>
<path fill="none" stroke="#000000" d="M571.1174,-299.624C505.1143,-291.3155 401.6171,-275.0737 370.3017,-252 349.1281,-236.3989 335.7764,-208.9996 328.2499,-188.5185"/>
<polygon fill="#000000" stroke="#000000" points="331.4788,-187.1443 324.9243,-178.8203 324.8573,-189.415 331.4788,-187.1443"/>
</g>
<!-- node18 -->
<g id="node11" class="node">
<title>node18</title>
<polygon fill="none" stroke="#000000" points="628.3017,-180 554.3017,-180 554.3017,-144 628.3017,-144 628.3017,-180"/>
<a href="DepsFullC3.svg"><text text-anchor="middle" x="591.3017" y="-158.9" font-family="Times,serif" font-size="12.00" fill="#000000">DepsFullC3</text></a>
</g>
<!-- node16&#45;&gt;node18 -->
<g id="edge56" class="edge">
<title>node16&#45;&gt;node18</title>
<path fill="none" stroke="#000000" d="M639.1425,-291.1896C651.0606,-272.9556 667.0563,-241.2977 655.3017,-216 649.8878,-204.3486 640.5848,-194.3063 630.7229,-186.1507"/>
<polygon fill="#000000" stroke="#000000" points="632.817,-183.3458 622.7577,-180.0198 628.5474,-188.8929 632.817,-183.3458"/>
</g>
<!-- node17 -->
<g id="node12" class="node">
<title>node17</title>
<polygon fill="none" stroke="#000000" points="232.3017,-252 167.957,-234 232.3017,-216 296.6464,-234 232.3017,-252"/>
<a href="DepsFullB2.svg"><text text-anchor="middle" x="232.3017" y="-230.9" font-family="Times,serif" font-size="12.00" fill="#000000">DepsFullB2</text></a>
</g>
<!-- node16&#45;&gt;node17 -->
<g id="edge30" class="edge">
<title>node16&#45;&gt;node17</title>
<path fill="none" stroke="#000000" d="M571.152,-296.724C508.6801,-286.4333 405.6873,-269.0259 317.3017,-252 304.6792,-249.5685 291.0413,-246.7612 278.4627,-244.0977"/>
<polygon fill="#000000" stroke="#000000" points="279.152,-240.6661 268.6418,-242.0024 277.6914,-247.512 279.152,-240.6661"/>
</g>
<!-- node14 -->
<g id="node13" class="node">
<title>node14</title>
<polygon fill="none" stroke="#000000" points="1230.3017,-180 1156.3017,-180 1156.3017,-144 1230.3017,-144 1230.3017,-180"/>
<a href="DepsFullB3.svg"><text text-anchor="middle" x="1193.3017" y="-158.9" font-family="Times,serif" font-size="12.00" fill="#000000">DepsFullB3</text></a>
</g>
<!-- node16&#45;&gt;node14 -->
<g id="edge37" class="edge">
<title>node16&#45;&gt;node14</title>
<path fill="none" stroke="#000000" d="M685.4801,-304.0864C762.6771,-300.1616 903.7605,-288.2238 1018.3017,-252 1068.8363,-236.0184 1122.3895,-206.355 1156.7446,-185.4614"/>
<polygon fill="#000000" stroke="#000000" points="1158.7968,-188.3081 1165.4788,-180.0862 1155.1279,-182.3466 1158.7968,-188.3081"/>
</g>
<!-- node13 -->
<g id="node14" class="node">
<title>node13</title>
<polygon fill="none" stroke="#000000" points="582.3017,-252 517.957,-234 582.3017,-216 646.6464,-234 582.3017,-252"/>
<a href="DepsFullB4.svg"><text text-anchor="middle" x="582.3017" y="-230.9" font-family="Times,serif" font-size="12.00" fill="#000000">DepsFullB4</text></a>
</g>
<!-- node16&#45;&gt;node13 -->
<g id="edge41" class="edge">
<title>node16&#45;&gt;node13</title>
<path fill="none" stroke="#000000" d="M618.9929,-291.4297C612.8198,-281.7676 604.578,-268.8672 597.4696,-257.741"/>
<polygon fill="#000000" stroke="#000000" points="600.4063,-255.8367 592.0729,-249.2941 594.5074,-259.6055 600.4063,-255.8367"/>
</g>
<!-- node12 -->
<g id="node15" class="node">
<title>node12</title>
<polygon fill="none" stroke="#000000" points="1009.3017,-252 935.3017,-252 935.3017,-216 1009.3017,-216 1009.3017,-252"/>
<a href="DepsFullB5.svg"><text text-anchor="middle" x="972.3017" y="-230.9" font-family="Times,serif" font-size="12.00" fill="#000000">DepsFullB5</text></a>
</g>
<!-- node16&#45;&gt;node12 -->
<g id="edge48" class="edge">
<title>node16&#45;&gt;node12</title>
<path fill="none" stroke="#000000" d="M685.6079,-298.1621C745.1049,-289.3921 840.5905,-273.5378 921.3017,-252 922.7192,-251.6217 924.1536,-251.2226 925.5977,-250.8065"/>
<polygon fill="#000000" stroke="#000000" points="926.6602,-254.1416 935.1897,-247.8569 924.6027,-247.4508 926.6602,-254.1416"/>
</g>
<!-- node20&#45;&gt;node21 -->
<g id="edge2" class="edge">
<title>node20&#45;&gt;node21</title>
<path fill="none" stroke="#000000" d="M793.304,-223.3762C822.0216,-212.0774 867.9856,-193.9932 902.5971,-180.3756"/>
<polygon fill="#000000" stroke="#000000" points="904.0103,-183.5808 912.0345,-176.6625 901.4474,-177.0668 904.0103,-183.5808"/>
</g>
<!-- node20&#45;&gt;node22 -->
<g id="edge24" class="edge">
<title>node20&#45;&gt;node22</title>
<path fill="none" stroke="#000000" d="M744.9223,-221.683C727.1932,-211.2096 701.5451,-195.4516 680.3017,-180 660.1451,-165.3389 658.3565,-157.339 637.3017,-144 612.0549,-128.0052 581.2958,-113.9985 557.653,-104.2607"/>
<polygon fill="#000000" stroke="#000000" points="558.9018,-100.9904 548.319,-100.4848 556.2767,-107.4795 558.9018,-100.9904"/>
</g>
<!-- node20&#45;&gt;node26 -->
<g id="edge26" class="edge">
<title>node20&#45;&gt;node26</title>
<path fill="none" stroke="#000000" d="M763.1761,-216.6889C756.4658,-179.5245 740.6261,-91.7966 732.4238,-46.3685"/>
<polygon fill="#000000" stroke="#000000" points="735.8282,-45.5251 730.607,-36.3061 728.9396,-46.7689 735.8282,-45.5251"/>
</g>
<!-- node20&#45;&gt;node29 -->
<g id="edge27" class="edge">
<title>node20&#45;&gt;node29</title>
<path fill="none" stroke="#000000" d="M753.8803,-219.2026C727.3255,-188.3279 661.9228,-116.2468 594.3017,-72 568.4715,-55.0985 536.4749,-41.0788 511.8733,-31.5635"/>
<polygon fill="#000000" stroke="#000000" points="513.0904,-28.2819 502.4988,-28.0162 510.6129,-34.8288 513.0904,-28.2819"/>
</g>
<!-- node20&#45;&gt;node31 -->
<g id="edge28" class="edge">
<title>node20&#45;&gt;node31</title>
<path fill="none" stroke="#000000" d="M812.4804,-228.9135C865.7918,-222.0397 955.4841,-207.3675 1028.3017,-180 1043.4858,-174.2933 1146.7503,-121.784 1155.3017,-108 1166.6645,-89.6842 1167.2477,-65.0247 1165.3615,-46.1496"/>
<polygon fill="#000000" stroke="#000000" points="1168.8123,-45.541 1164.0707,-36.0664 1161.8689,-46.43 1168.8123,-45.541"/>
</g>
<!-- node20&#45;&gt;node32 -->
<g id="edge29" class="edge">
<title>node20&#45;&gt;node32</title>
<path fill="none" stroke="#000000" d="M729.6537,-226.1495C685.5838,-216.4558 609.521,-198.9156 545.3017,-180 451.4615,-152.3597 427.4223,-146.0559 337.3017,-108 283.7665,-85.3933 223.8694,-53.9617 188.7154,-34.8523"/>
<polygon fill="#000000" stroke="#000000" points="190.3599,-31.7625 179.906,-30.0396 187.0038,-37.9055 190.3599,-31.7625"/>
</g>
<!-- node20&#45;&gt;node23 -->
<g id="edge25" class="edge">
<title>node20&#45;&gt;node23</title>
<path fill="none" stroke="#000000" d="M772.4962,-217.4814C781.814,-192.6339 799.5199,-145.418 810.5722,-115.9452"/>
<polygon fill="#000000" stroke="#000000" points="813.9453,-116.9182 814.1794,-106.326 807.391,-114.4603 813.9453,-116.9182"/>
</g>
<!-- node20&#45;&gt;node9 -->
<g id="edge16" class="edge">
<title>node20&#45;&gt;node9</title>
<path fill="none" stroke="#000000" d="M725.9999,-227.2498C704.9496,-223.7784 678.7554,-219.5439 655.3017,-216 541.2588,-198.7679 511.7135,-200.9875 398.3017,-180 387.2112,-177.9477 375.3135,-175.3876 364.235,-172.8479"/>
<polygon fill="#000000" stroke="#000000" points="364.8718,-169.4025 354.3378,-170.5365 363.2797,-176.2191 364.8718,-169.4025"/>
</g>
<!-- node20&#45;&gt;node18 -->
<g id="edge21" class="edge">
<title>node20&#45;&gt;node18</title>
<path fill="none" stroke="#000000" d="M740.1024,-223.2209C713.1128,-212.1166 670.4858,-194.5786 637.7608,-181.1146"/>
<polygon fill="#000000" stroke="#000000" points="638.9634,-177.8248 628.3838,-177.2566 636.2999,-184.2983 638.9634,-177.8248"/>
</g>
<!-- node21&#45;&gt;node22 -->
<g id="edge3" class="edge">
<title>node21&#45;&gt;node22</title>
<path fill="none" stroke="#000000" d="M912.1284,-154.1189C896.1987,-150.8358 877.3667,-147.0794 860.3017,-144 759.1083,-125.7394 640.3665,-107.6335 573.3679,-97.722"/>
<polygon fill="#000000" stroke="#000000" points="573.4737,-94.1998 563.0699,-96.2028 572.452,-101.1248 573.4737,-94.1998"/>
</g>
<!-- node21&#45;&gt;node26 -->
<g id="edge12" class="edge">
<title>node21&#45;&gt;node26</title>
<path fill="none" stroke="#000000" d="M960.1235,-143.7249C970.2714,-123.9351 981.6412,-92.4621 965.3017,-72 941.8854,-42.6756 836.9223,-28.0784 774.4763,-21.8677"/>
<polygon fill="#000000" stroke="#000000" points="774.7524,-18.3782 764.4638,-20.9073 774.084,-25.3462 774.7524,-18.3782"/>
</g>
<!-- node21&#45;&gt;node29 -->
<g id="edge13" class="edge">
<title>node21&#45;&gt;node29</title>
<path fill="none" stroke="#000000" d="M950.462,-143.7575C950.6855,-123.0758 947.5333,-89.9142 927.3017,-72 912.6853,-59.0578 652.3293,-34.1093 532.6263,-23.2567"/>
<polygon fill="#000000" stroke="#000000" points="532.8022,-19.7584 522.5278,-22.3444 532.1723,-26.73 532.8022,-19.7584"/>
</g>
<!-- node21&#45;&gt;node31 -->
<g id="edge14" class="edge">
<title>node21&#45;&gt;node31</title>
<path fill="none" stroke="#000000" d="M976.025,-143.7623C1013.9166,-117.9026 1083.307,-70.5461 1125.2769,-41.9032"/>
<polygon fill="#000000" stroke="#000000" points="1127.5085,-44.6176 1133.7954,-36.0896 1123.5626,-38.8357 1127.5085,-44.6176"/>
</g>
<!-- node21&#45;&gt;node32 -->
<g id="edge15" class="edge">
<title>node21&#45;&gt;node32</title>
<path fill="none" stroke="#000000" d="M940.7744,-143.9877C929.1341,-120.2304 908.1387,-80.436 894.3017,-72 847.3116,-43.3518 455.1876,-40.0411 400.3017,-36 338.7167,-31.4657 268.321,-26.2229 219.3926,-22.5694"/>
<polygon fill="#000000" stroke="#000000" points="219.5215,-19.0693 209.2885,-21.8147 219,-26.0499 219.5215,-19.0693"/>
</g>
<!-- node21&#45;&gt;node23 -->
<g id="edge8" class="edge">
<title>node21&#45;&gt;node23</title>
<path fill="none" stroke="#000000" d="M916.7495,-143.8314C896.5171,-132.5388 870.6738,-118.1147 850.8319,-107.0401"/>
<polygon fill="#000000" stroke="#000000" points="852.3403,-103.8738 841.9025,-102.0563 848.9287,-109.9862 852.3403,-103.8738"/>
</g>
<!-- node22&#45;&gt;node26 -->
<g id="edge4" class="edge">
<title>node22&#45;&gt;node26</title>
<path fill="none" stroke="#000000" d="M549.5207,-79.8369C583.599,-67.9835 640.3853,-48.2318 680.5996,-34.2442"/>
<polygon fill="#000000" stroke="#000000" points="681.8918,-37.5005 690.1869,-30.9095 679.5921,-30.889 681.8918,-37.5005"/>
</g>
<!-- node22&#45;&gt;node29 -->
<g id="edge5" class="edge">
<title>node22&#45;&gt;node29</title>
<path fill="none" stroke="#000000" d="M510.3342,-74.7307C504.1029,-65.1848 495.9459,-52.6891 488.874,-41.8554"/>
<polygon fill="#000000" stroke="#000000" points="491.6519,-39.708 483.2548,-33.2473 485.7902,-43.5343 491.6519,-39.708"/>
</g>
<!-- node22&#45;&gt;node31 -->
<g id="edge6" class="edge">
<title>node22&#45;&gt;node31</title>
<path fill="none" stroke="#000000" d="M561.1119,-83.2117C583.5575,-79.6067 611.9237,-75.2603 637.3017,-72 812.3105,-49.5171 1021.2139,-30.1991 1113.0454,-22.085"/>
<polygon fill="#000000" stroke="#000000" points="1113.4779,-25.5606 1123.1325,-21.1973 1112.8642,-18.5876 1113.4779,-25.5606"/>
</g>
<!-- node22&#45;&gt;node32 -->
<g id="edge7" class="edge">
<title>node22&#45;&gt;node32</title>
<path fill="none" stroke="#000000" d="M482.2455,-82.4308C415.757,-69.2066 278.6147,-41.9297 205.933,-27.4736"/>
<polygon fill="#000000" stroke="#000000" points="206.6098,-24.0398 196.1191,-25.5217 205.2442,-30.9053 206.6098,-24.0398"/>
</g>
<!-- node23&#45;&gt;node26 -->
<g id="edge9" class="edge">
<title>node23&#45;&gt;node26</title>
<path fill="none" stroke="#000000" d="M802.8091,-76.4574C790.3784,-66.8336 773.3428,-53.6447 758.5986,-42.2299"/>
<polygon fill="#000000" stroke="#000000" points="760.7368,-39.459 750.687,-36.1047 756.4516,-44.994 760.7368,-39.459"/>
</g>
<!-- node23&#45;&gt;node29 -->
<g id="edge10" class="edge">
<title>node23&#45;&gt;node29</title>
<path fill="none" stroke="#000000" d="M782.8369,-82.2263C719.114,-69.0043 589.7817,-42.1688 520.1701,-27.7249"/>
<polygon fill="#000000" stroke="#000000" points="520.8503,-24.2915 510.3478,-25.6868 519.4281,-31.1455 520.8503,-24.2915"/>
</g>
<!-- node23&#45;&gt;node31 -->
<g id="edge11" class="edge">
<title>node23&#45;&gt;node31</title>
<path fill="none" stroke="#000000" d="M857.3349,-82.1577C919.4615,-69.0014 1044.5774,-42.5063 1112.9852,-28.02"/>
<polygon fill="#000000" stroke="#000000" points="1113.9978,-31.3832 1123.0558,-25.8874 1112.5476,-24.5351 1113.9978,-31.3832"/>
</g>
<!-- node9&#45;&gt;node22 -->
<g id="edge17" class="edge">
<title>node9&#45;&gt;node22</title>
<path fill="none" stroke="#000000" d="M348.5326,-151.8369C383.5728,-139.2224 443.4609,-117.6627 482.4554,-103.6247"/>
<polygon fill="#000000" stroke="#000000" points="483.6679,-106.9081 491.8913,-100.2278 481.2968,-100.3219 483.6679,-106.9081"/>
</g>
<!-- node9&#45;&gt;node26 -->
<g id="edge18" class="edge">
<title>node9&#45;&gt;node26</title>
<path fill="none" stroke="#000000" d="M335.2643,-147.955C357.6036,-127.8164 401.8291,-91.0682 446.3017,-72 523.8847,-38.7353 622.278,-25.839 679.6735,-20.9273"/>
<polygon fill="#000000" stroke="#000000" points="680.214,-24.3951 689.8992,-20.0999 679.6495,-17.4179 680.214,-24.3951"/>
</g>
<!-- node9&#45;&gt;node29 -->
<g id="edge19" class="edge">
<title>node9&#45;&gt;node29</title>
<path fill="none" stroke="#000000" d="M309.9188,-146.8002C298.2163,-127.5923 282.838,-94.3477 299.3017,-72 314.1268,-51.8765 376.9662,-36.0184 422.8842,-26.829"/>
<polygon fill="#000000" stroke="#000000" points="423.8389,-30.2089 432.9841,-24.8595 422.499,-23.3383 423.8389,-30.2089"/>
</g>
<!-- node9&#45;&gt;node32 -->
<g id="edge20" class="edge">
<title>node9&#45;&gt;node32</title>
<path fill="none" stroke="#000000" d="M294.0383,-151.2049C273.318,-141.8344 244.4778,-126.8232 223.3017,-108 202.0361,-89.0972 183.6821,-62.0681 171.9531,-42.5702"/>
<polygon fill="#000000" stroke="#000000" points="174.9689,-40.794 166.8937,-33.9353 168.9293,-44.3328 174.9689,-40.794"/>
</g>
<!-- node18&#45;&gt;node29 -->
<g id="edge22" class="edge">
<title>node18&#45;&gt;node29</title>
<path fill="none" stroke="#000000" d="M554.1546,-153.2805C515.5266,-143.3724 458.9455,-126.2009 446.3017,-108 432.4019,-87.9911 443.9094,-60.6973 455.9101,-41.4283"/>
<polygon fill="#000000" stroke="#000000" points="458.9322,-43.2044 461.55,-32.938 453.1014,-39.3311 458.9322,-43.2044"/>
</g>
<!-- node18&#45;&gt;node31 -->
<g id="edge23" class="edge">
<title>node18&#45;&gt;node31</title>
<path fill="none" stroke="#000000" d="M615.3291,-143.9357C644.6072,-122.9335 696.3681,-88.9856 746.3017,-72 813.3539,-49.1913 1019.2892,-29.7377 1112.9937,-21.8084"/>
<polygon fill="#000000" stroke="#000000" points="1113.3729,-25.289 1123.0455,-20.9657 1112.788,-18.3135 1113.3729,-25.289"/>
</g>
<!-- node17&#45;&gt;node26 -->
<g id="edge34" class="edge">
<title>node17&#45;&gt;node26</title>
<path fill="none" stroke="#000000" d="M226.0138,-217.5943C219.7743,-198.3523 213.021,-166.2599 227.3017,-144 268.7531,-79.388 310.8093,-94.1768 384.3017,-72 487.1532,-40.9639 613.0324,-26.9696 680.0324,-21.3306"/>
<polygon fill="#000000" stroke="#000000" points="680.5849,-24.7973 690.2674,-20.496 680.0159,-17.8204 680.5849,-24.7973"/>
</g>
<!-- node17&#45;&gt;node29 -->
<g id="edge35" class="edge">
<title>node17&#45;&gt;node29</title>
<path fill="none" stroke="#000000" d="M212.5027,-221.299C199.522,-211.7135 183.6433,-197.2783 176.3017,-180 168.6637,-162.0241 168.6785,-84.2253 179.3017,-72 208.3355,-38.5877 329.2253,-25.7266 406.6584,-20.8641"/>
<polygon fill="#000000" stroke="#000000" points="407.0401,-24.3476 416.8132,-20.2564 406.6219,-17.3601 407.0401,-24.3476"/>
</g>
<!-- node17&#45;&gt;node32 -->
<g id="edge36" class="edge">
<title>node17&#45;&gt;node32</title>
<path fill="none" stroke="#000000" d="M196.9192,-225.7383C146.3766,-211.6714 56.3978,-177.5648 27.3017,-108 21.1278,-93.2391 18.4012,-85.2959 27.3017,-72 44.3642,-46.5113 75.8826,-33.0413 103.7275,-25.9291"/>
<polygon fill="#000000" stroke="#000000" points="104.8411,-29.2635 113.7863,-23.5859 103.253,-22.446 104.8411,-29.2635"/>
</g>
<!-- node17&#45;&gt;node23 -->
<g id="edge33" class="edge">
<title>node17&#45;&gt;node23</title>
<path fill="none" stroke="#000000" d="M229.5707,-216.5668C227.4463,-196.0183 227.5945,-162.3519 247.3017,-144 256.6073,-135.3343 613.5926,-106.2927 759.3067,-94.7697"/>
<polygon fill="#000000" stroke="#000000" points="759.7318,-98.2472 769.4253,-93.9709 759.1808,-91.2689 759.7318,-98.2472"/>
</g>
<!-- node17&#45;&gt;node9 -->
<g id="edge31" class="edge">
<title>node17&#45;&gt;node9</title>
<path fill="none" stroke="#000000" d="M248.8538,-220.4574C262.1285,-209.5962 280.953,-194.1944 295.9473,-181.9263"/>
<polygon fill="#000000" stroke="#000000" points="298.3005,-184.5232 303.8238,-175.4819 293.8678,-179.1055 298.3005,-184.5232"/>
</g>
<!-- node17&#45;&gt;node18 -->
<g id="edge32" class="edge">
<title>node17&#45;&gt;node18</title>
<path fill="none" stroke="#000000" d="M270.0425,-226.4308C335.9309,-213.2164 471.7835,-185.9702 543.9042,-171.5059"/>
<polygon fill="#000000" stroke="#000000" points="544.9501,-174.8659 554.0666,-169.4678 543.5736,-168.0026 544.9501,-174.8659"/>
</g>
<!-- node14&#45;&gt;node29 -->
<g id="edge39" class="edge">
<title>node14&#45;&gt;node29</title>
<path fill="none" stroke="#000000" d="M1156.0494,-144.8892C1109.2736,-124.1724 1026.0771,-89.8455 951.3017,-72 873.3945,-53.4071 643.8839,-32.3606 533.6901,-22.9754"/>
<polygon fill="#000000" stroke="#000000" points="533.6676,-19.461 523.4078,-22.104 533.0765,-26.436 533.6676,-19.461"/>
</g>
<!-- node14&#45;&gt;node31 -->
<g id="edge40" class="edge">
<title>node14&#45;&gt;node31</title>
<path fill="none" stroke="#000000" d="M1210.4106,-143.7804C1225.4987,-125.3908 1243.356,-96.3128 1231.3017,-72 1225.3265,-59.9485 1215.2325,-49.8585 1204.5024,-41.7863"/>
<polygon fill="#000000" stroke="#000000" points="1206.433,-38.8655 1196.2308,-36.0077 1202.4241,-44.6039 1206.433,-38.8655"/>
</g>
<!-- node14&#45;&gt;node23 -->
<g id="edge38" class="edge">
<title>node14&#45;&gt;node23</title>
<path fill="none" stroke="#000000" d="M1156.1734,-154.8331C1088.3285,-141.7371 944.375,-113.9498 868.8568,-99.3726"/>
<polygon fill="#000000" stroke="#000000" points="869.1522,-95.8651 858.6701,-97.4062 867.8255,-102.7382 869.1522,-95.8651"/>
</g>
<!-- node13&#45;&gt;node26 -->
<g id="edge45" class="edge">
<title>node13&#45;&gt;node26</title>
<path fill="none" stroke="#000000" d="M568.6091,-219.6027C553.154,-201.5183 531.8159,-169.7385 545.3017,-144 547.345,-140.1003 639.7656,-77.1904 692.0957,-41.772"/>
<polygon fill="#000000" stroke="#000000" points="694.1184,-44.6294 700.4402,-36.1273 690.1962,-38.8314 694.1184,-44.6294"/>
</g>
<!-- node13&#45;&gt;node31 -->
<g id="edge46" class="edge">
<title>node13&#45;&gt;node31</title>
<path fill="none" stroke="#000000" d="M622.3148,-227.0938C643.4012,-223.5601 669.7162,-219.3166 693.3017,-216 827.1572,-197.1772 875.0164,-241.6689 995.3017,-180 1014.6163,-170.0976 1012.7906,-159.1828 1028.3017,-144 1045.6313,-127.0372 1051.562,-124.5333 1069.3017,-108 1092.0587,-86.7905 1117.1408,-61.8624 1135.199,-43.6261"/>
<polygon fill="#000000" stroke="#000000" points="1137.9457,-45.8257 1142.4809,-36.2506 1132.9644,-40.9077 1137.9457,-45.8257"/>
</g>
<!-- node13&#45;&gt;node32 -->
<g id="edge47" class="edge">
<title>node13&#45;&gt;node32</title>
<path fill="none" stroke="#000000" d="M531.155,-230.2411C449.636,-223.5125 294.612,-207.482 247.3017,-180 197.5893,-151.1227 173.8686,-83.3225 164.1072,-45.2211"/>
<polygon fill="#000000" stroke="#000000" points="167.4654,-44.2171 161.7142,-35.3192 160.6613,-45.8615 167.4654,-44.2171"/>
</g>
<!-- node13&#45;&gt;node23 -->
<g id="edge44" class="edge">
<title>node13&#45;&gt;node23</title>
<path fill="none" stroke="#000000" d="M603.0063,-221.4729C645.3985,-195.8238 742.1869,-137.2627 791.0015,-107.7279"/>
<polygon fill="#000000" stroke="#000000" points="793.0704,-110.5669 799.8144,-102.3956 789.4467,-104.5778 793.0704,-110.5669"/>
</g>
<!-- node13&#45;&gt;node9 -->
<g id="edge42" class="edge">
<title>node13&#45;&gt;node9</title>
<path fill="none" stroke="#000000" d="M549.649,-225.0267C502.4521,-212.0566 415.1189,-188.0566 362.9055,-173.7079"/>
<polygon fill="#000000" stroke="#000000" points="363.5234,-170.248 352.9534,-170.973 361.6684,-176.9978 363.5234,-170.248"/>
</g>
<!-- node13&#45;&gt;node18 -->
<g id="edge43" class="edge">
<title>node13&#45;&gt;node18</title>
<path fill="none" stroke="#000000" d="M584.4803,-216.5708C585.475,-208.6139 586.6779,-198.9902 587.7949,-190.054"/>
<polygon fill="#000000" stroke="#000000" points="591.2817,-190.3775 589.0491,-180.0206 584.3357,-189.5092 591.2817,-190.3775"/>
</g>
<!-- node12&#45;&gt;node21 -->
<g id="edge49" class="edge">
<title>node12&#45;&gt;node21</title>
<path fill="none" stroke="#000000" d="M966.4978,-215.8314C964.0109,-208.0463 961.0486,-198.7729 958.2892,-190.1347"/>
<polygon fill="#000000" stroke="#000000" points="961.5608,-188.874 955.1837,-180.4133 954.8927,-191.0041 961.5608,-188.874"/>
</g>
<!-- node12&#45;&gt;node26 -->
<g id="edge51" class="edge">
<title>node12&#45;&gt;node26</title>
<path fill="none" stroke="#000000" d="M982.3252,-215.6094C987.2998,-205.4366 992.775,-192.3803 995.3017,-180 1004.9499,-132.7262 1017.4587,-107.0502 984.3017,-72 956.1224,-42.2117 840.6599,-27.6243 774.4847,-21.5829"/>
<polygon fill="#000000" stroke="#000000" points="774.5769,-18.0775 764.3081,-20.6856 773.962,-25.0504 774.5769,-18.0775"/>
</g>
<!-- node12&#45;&gt;node31 -->
<g id="edge52" class="edge">
<title>node12&#45;&gt;node31</title>
<path fill="none" stroke="#000000" d="M1009.3829,-218.05C1011.0438,-217.3539 1012.6893,-216.6679 1014.3017,-216 1054.1036,-199.5135 1067.3231,-202.104 1104.3017,-180 1125.6955,-167.2118 1127.9294,-159.6827 1147.3017,-144 1167.4796,-127.6651 1181.9307,-131.3383 1193.3017,-108 1203.3872,-87.3001 1192.9315,-62.6861 1181.1923,-44.4353"/>
<polygon fill="#000000" stroke="#000000" points="1183.9623,-42.2866 1175.4106,-36.0321 1178.1954,-46.2544 1183.9623,-42.2866"/>
</g>
<!-- node12&#45;&gt;node32 -->
<g id="edge53" class="edge">
<title>node12&#45;&gt;node32</title>
<path fill="none" stroke="#000000" d="M935.1044,-223.0105C873.5251,-205.0427 746.36,-168.8894 637.3017,-144 553.0835,-124.7797 530.1142,-128.9186 446.3017,-108 355.631,-85.3697 251.4728,-50.5744 196.656,-31.5583"/>
<polygon fill="#000000" stroke="#000000" points="197.6039,-28.1823 187.0091,-28.1977 195.3011,-34.7927 197.6039,-28.1823"/>
</g>
<!-- node12&#45;&gt;node18 -->
<g id="edge50" class="edge">
<title>node12&#45;&gt;node18</title>
<path fill="none" stroke="#000000" d="M935.0761,-226.9652C865.2779,-213.775 714.8915,-185.3555 638.2594,-170.8739"/>
<polygon fill="#000000" stroke="#000000" points="638.8735,-167.4281 628.3975,-169.0102 637.5736,-174.3063 638.8735,-167.4281"/>
</g>
<!-- node10 -->
<g id="node16" class="node">
<title>node10</title>
<polygon fill="none" stroke="#000000" points="1259.4379,-311.5623 1202.3017,-324 1145.1655,-311.5623 1145.2188,-291.4377 1259.3845,-291.4377 1259.4379,-311.5623"/>
<a href="DepsFullA2.svg"><text text-anchor="middle" x="1202.3017" y="-302.9" font-family="Times,serif" font-size="12.00" fill="#000000">DepsFullA2</text></a>
</g>
<!-- node10&#45;&gt;node20 -->
<g id="edge63" class="edge">
<title>node10&#45;&gt;node20</title>
<path fill="none" stroke="#000000" d="M1151.2853,-291.4293C1146.2423,-290.187 1141.1849,-289.0183 1136.3017,-288 1026.5173,-265.1063 896.411,-248.5202 823.4039,-240.1541"/>
<polygon fill="#000000" stroke="#000000" points="823.3868,-236.6298 813.0558,-238.9797 822.5973,-243.5851 823.3868,-236.6298"/>
</g>
<!-- node10&#45;&gt;node21 -->
<g id="edge66" class="edge">
<title>node10&#45;&gt;node21</title>
<path fill="none" stroke="#000000" d="M1176.7761,-291.2828C1145.7402,-273.4081 1091.7461,-242.374 1045.3017,-216 1027.4833,-205.8816 1007.7617,-194.7727 990.8521,-185.2752"/>
<polygon fill="#000000" stroke="#000000" points="992.2105,-182.024 981.7772,-180.1812 988.7841,-188.1281 992.2105,-182.024"/>
</g>
<!-- node10&#45;&gt;node26 -->
<g id="edge68" class="edge">
<title>node10&#45;&gt;node26</title>
<path fill="none" stroke="#000000" d="M1215.4561,-291.1012C1239.626,-261.821 1286.2607,-195.1746 1259.3017,-144 1232.9286,-93.9377 1207.1899,-92.115 1154.3017,-72 1085.6519,-45.8905 870.6361,-28.0372 774.5309,-21.1567"/>
<polygon fill="#000000" stroke="#000000" points="774.7339,-17.6624 764.5119,-20.4484 774.2402,-24.645 774.7339,-17.6624"/>
</g>
<!-- node10&#45;&gt;node29 -->
<g id="edge69" class="edge">
<title>node10&#45;&gt;node29</title>
<path fill="none" stroke="#000000" d="M1153.1747,-291.3955C1147.5218,-290.075 1141.8109,-288.8993 1136.3017,-288 1067.4317,-276.7584 567.6911,-290.2116 509.3017,-252 449.2617,-212.7082 452.9808,-177.7886 436.3017,-108 432.5825,-92.4383 431.5679,-87.2837 436.3017,-72 439.8542,-60.5302 446.7768,-49.3298 453.6826,-40.1301"/>
<polygon fill="#000000" stroke="#000000" points="456.4315,-42.2967 459.9228,-32.2936 450.9555,-37.9362 456.4315,-42.2967"/>
</g>
<!-- node10&#45;&gt;node31 -->
<g id="edge70" class="edge">
<title>node10&#45;&gt;node31</title>
<path fill="none" stroke="#000000" d="M1259.5763,-294.5143C1287.9638,-286.4742 1321.2271,-273.2483 1345.3017,-252 1406.6032,-197.895 1433.8579,-136.2597 1383.3017,-72 1361.8671,-44.7554 1266.499,-29.5961 1207.6375,-22.6825"/>
<polygon fill="#000000" stroke="#000000" points="1207.7851,-19.1768 1197.4539,-21.5255 1206.9948,-26.1321 1207.7851,-19.1768"/>
</g>
<!-- node10&#45;&gt;node9 -->
<g id="edge67" class="edge">
<title>node10&#45;&gt;node9</title>
<path fill="none" stroke="#000000" d="M1153.1773,-291.3797C1147.5239,-290.0622 1141.8122,-288.8914 1136.3017,-288 991.3018,-264.5447 617.0998,-293.845 476.3017,-252 426.1085,-237.0826 374.8261,-203.1674 345.3596,-181.4939"/>
<polygon fill="#000000" stroke="#000000" points="347.3981,-178.648 337.2932,-175.4635 343.2067,-184.2545 347.3981,-178.648"/>
</g>
<!-- node10&#45;&gt;node14 -->
<g id="edge64" class="edge">
<title>node10&#45;&gt;node14</title>
<path fill="none" stroke="#000000" d="M1207.8,-291.2709C1213.7397,-273.3846 1221.6773,-242.339 1216.3017,-216 1214.4856,-207.1016 1211.1463,-197.8541 1207.5646,-189.5789"/>
<polygon fill="#000000" stroke="#000000" points="1210.6927,-188.0044 1203.3252,-180.3906 1204.3366,-190.937 1210.6927,-188.0044"/>
</g>
<!-- node10&#45;&gt;node12 -->
<g id="edge65" class="edge">
<title>node10&#45;&gt;node12</title>
<path fill="none" stroke="#000000" d="M1155.7578,-291.4297C1115.9461,-278.9669 1058.9248,-261.1168 1019.0534,-248.6353"/>
<polygon fill="#000000" stroke="#000000" points="1019.896,-245.2317 1009.307,-245.5843 1017.8047,-251.912 1019.896,-245.2317"/>
</g>
<!-- node34 -->
<g id="node17" class="node">
<title>node34</title>
<polygon fill="none" stroke="#000000" points="1127.4379,-311.5623 1070.3017,-324 1013.1655,-311.5623 1013.2188,-291.4377 1127.3845,-291.4377 1127.4379,-311.5623"/>
<a href="DepsFullA3.svg"><text text-anchor="middle" x="1070.3017" y="-302.9" font-family="Times,serif" font-size="12.00" fill="#000000">DepsFullA3</text></a>
</g>
<!-- node34&#45;&gt;node21 -->
<g id="edge73" class="edge">
<title>node34&#45;&gt;node21</title>
<path fill="none" stroke="#000000" d="M1063.9048,-291.1845C1055.3261,-272.3825 1038.7772,-239.5662 1018.3017,-216 1008.7481,-205.0043 996.6874,-194.6791 985.3319,-186.0613"/>
<polygon fill="#000000" stroke="#000000" points="987.3628,-183.2102 977.2339,-180.1027 983.2141,-188.8484 987.3628,-183.2102"/>
</g>
<!-- node34&#45;&gt;node22 -->
<g id="edge74" class="edge">
<title>node34&#45;&gt;node22</title>
<path fill="none" stroke="#000000" d="M1013.1113,-302.555C873.6318,-293.8792 526.1089,-270.5027 509.3017,-252 475.5754,-214.8715 494.047,-151.0924 508.4485,-115.6474"/>
<polygon fill="#000000" stroke="#000000" points="511.8451,-116.604 512.5402,-106.032 505.404,-113.863 511.8451,-116.604"/>
</g>
<!-- node34&#45;&gt;node26 -->
<g id="edge75" class="edge">
<title>node34&#45;&gt;node26</title>
<path fill="none" stroke="#000000" d="M1108.1998,-291.3242C1170.6968,-264.9182 1284.2166,-206.3161 1239.3017,-144 1184.5522,-68.0391 890.3434,-33.0191 774.3534,-22.0148"/>
<polygon fill="#000000" stroke="#000000" points="774.6312,-18.5256 764.3498,-21.0836 773.9824,-25.4955 774.6312,-18.5256"/>
</g>
<!-- node34&#45;&gt;node17 -->
<g id="edge71" class="edge">
<title>node34&#45;&gt;node17</title>
<path fill="none" stroke="#000000" d="M1013.0455,-302.609C893.4664,-295.3012 608.5354,-276.7086 370.3017,-252 341.9782,-249.0624 310.4853,-245.0146 284.7442,-241.5014"/>
<polygon fill="#000000" stroke="#000000" points="285.2022,-238.0316 274.8182,-240.1345 284.2472,-244.9661 285.2022,-238.0316"/>
</g>
<!-- node34&#45;&gt;node14 -->
<g id="edge72" class="edge">
<title>node34&#45;&gt;node14</title>
<path fill="none" stroke="#000000" d="M1082.7725,-291.4001C1103.5163,-267.1145 1145.3786,-218.1051 1171.2116,-187.8615"/>
<polygon fill="#000000" stroke="#000000" points="1173.893,-190.1113 1177.7266,-180.2343 1168.5704,-185.5648 1173.893,-190.1113"/>
</g>
</g>
</svg>
