<?xml version="1.0" encoding="UTF-8" standalone="no"?>
<!DOCTYPE svg PUBLIC "-//W3C//DTD SVG 1.1//EN"
 "http://www.w3.org/Graphics/SVG/1.1/DTD/svg11.dtd">
<!-- Generated by graphviz version 2.40.1 (20161225.0304)
 -->
<!-- Title: GG Pages: 1 -->
<svg width="111pt" height="260pt"
 viewBox="0.00 0.00 111.46 260.00" xmlns="http://www.w3.org/2000/svg" xmlns:xlink="http://www.w3.org/1999/xlink">
<g id="graph0" class="graph" transform="scale(1 1) rotate(0) translate(4 256)">
<title>GG</title>
<polygon fill="#ffffff" stroke="transparent" points="-4,4 -4,-256 107.459,-256 107.459,4 -4,4"/>
<!-- node14 -->
<g id="node1" class="node">
<title>node14</title>
<polygon fill="none" stroke="#000000" points="103.418,-239.5623 54,-252 4.582,-239.5623 4.6281,-219.4377 103.3719,-219.4377 103.418,-239.5623"/>
<a href="TestCycle.dependers.svg"><text text-anchor="middle" x="54" y="-230.9" font-family="Times,serif" font-size="12.00" fill="#000000">TestCycle</text></a>
</g>
<!-- node5 -->
<g id="node2" class="node">
<title>node5</title>
<polygon fill="none" stroke="#000000" points="54,-180 27,-162 54,-144 81,-162 54,-180"/>
<a href="A.svg"><text text-anchor="middle" x="54" y="-158.9" font-family="Times,serif" font-size="12.00" fill="#000000">A</text></a>
</g>
<!-- node14&#45;&gt;node5 -->
<g id="edge1" class="edge">
<title>node14&#45;&gt;node5</title>
<path fill="none" stroke="#000000" d="M54,-219.4297C54,-211.1011 54,-200.3665 54,-190.436"/>
<polygon fill="#000000" stroke="#000000" points="57.5001,-190.1279 54,-180.128 50.5001,-190.128 57.5001,-190.1279"/>
</g>
<!-- node8 -->
<g id="node3" class="node">
<title>node8</title>
<polygon fill="none" stroke="#000000" points="27,-108 0,-90 27,-72 54,-90 27,-108"/>
<a href="B.svg"><text text-anchor="middle" x="27" y="-86.9" font-family="Times,serif" font-size="12.00" fill="#000000">B</text></a>
</g>
<!-- node5&#45;&gt;node8 -->
<g id="edge2" class="edge">
<title>node5&#45;&gt;node8</title>
<path fill="none" stroke="#000000" d="M48.5361,-147.4297C44.9497,-137.8658 40.1735,-125.1292 36.0303,-114.0809"/>
<polygon fill="#000000" stroke="#000000" points="39.2442,-112.6829 32.4557,-104.5486 32.6899,-115.1409 39.2442,-112.6829"/>
</g>
<!-- node11 -->
<g id="node4" class="node">
<title>node11</title>
<polygon fill="none" stroke="#000000" points="54,-36 27,-18 54,0 81,-18 54,-36"/>
<a href="C.svg"><text text-anchor="middle" x="54" y="-14.9" font-family="Times,serif" font-size="12.00" fill="#000000">C</text></a>
</g>
<!-- node8&#45;&gt;node11 -->
<g id="edge3" class="edge">
<title>node8&#45;&gt;node11</title>
<path fill="none" stroke="#000000" d="M32.4639,-75.4297C36.0503,-65.8658 40.8265,-53.1292 44.9697,-42.0809"/>
<polygon fill="#000000" stroke="#000000" points="48.3101,-43.1409 48.5443,-32.5486 41.7558,-40.6829 48.3101,-43.1409"/>
</g>
<!-- node11&#45;&gt;node5 -->
<g id="edge4" class="edge">
<title>node11&#45;&gt;node5</title>
<path fill="none" stroke="#000000" d="M57.3759,-33.9806C59.4605,-44.6831 61.9339,-59.1182 63,-72 64.3197,-87.9455 64.3197,-92.0545 63,-108 62.242,-117.1582 60.7728,-127.1014 59.2377,-135.9304"/>
<polygon fill="#000000" stroke="#000000" points="55.7488,-135.5502 57.3759,-146.0194 62.6326,-136.8206 55.7488,-135.5502"/>
</g>
</g>
</svg>
