<?xml version="1.0" encoding="UTF-8" standalone="no"?>
<!DOCTYPE svg PUBLIC "-//W3C//DTD SVG 1.1//EN"
 "http://www.w3.org/Graphics/SVG/1.1/DTD/svg11.dtd">
<!-- Generated by graphviz version 2.40.1 (20161225.0304)
 -->
<!-- Title: GG Pages: 1 -->
<svg width="494pt" height="116pt"
 viewBox="0.00 0.00 494.00 116.00" xmlns="http://www.w3.org/2000/svg" xmlns:xlink="http://www.w3.org/1999/xlink">
<g id="graph0" class="graph" transform="scale(1 1) rotate(0) translate(4 112)">
<title>GG</title>
<polygon fill="#ffffff" stroke="transparent" points="-4,4 -4,-112 490,-112 490,4 -4,4"/>
<!-- node8 -->
<g id="node1" class="node">
<title>node8</title>
<polygon fill="none" stroke="#000000" points="243,-108 216,-90 243,-72 270,-90 243,-108"/>
<text text-anchor="middle" x="243" y="-86.9" font-family="Times,serif" font-size="12.00" fill="#000000">cat</text>
</g>
<!-- node5 -->
<g id="node2" class="node">
<title>node5</title>
<polygon fill="none" stroke="#000000" points="27,-36 0,-18 27,0 54,-18 27,-36"/>
<text text-anchor="middle" x="27" y="-14.9" font-family="Times,serif" font-size="12.00" fill="#000000">a</text>
</g>
<!-- node8&#45;&gt;node5 -->
<g id="edge1" class="edge">
<title>node8&#45;&gt;node5</title>
<path fill="none" stroke="#000000" d="M222.9098,-85.1808C189.2437,-76.8391 119.5619,-58.4312 63,-36 59.1636,-34.4786 55.1811,-32.701 51.3243,-30.8666"/>
<polygon fill="#000000" stroke="#000000" points="52.6626,-27.6232 42.1504,-26.3027 49.5447,-33.8905 52.6626,-27.6232"/>
</g>
<!-- node9 -->
<g id="node3" class="node">
<title>node9</title>
<polygon fill="none" stroke="#000000" points="99,-36 72,-18 99,0 126,-18 99,-36"/>
<text text-anchor="middle" x="99" y="-14.9" font-family="Times,serif" font-size="12.00" fill="#000000">b</text>
</g>
<!-- node8&#45;&gt;node9 -->
<g id="edge2" class="edge">
<title>node8&#45;&gt;node9</title>
<path fill="none" stroke="#000000" d="M227.3154,-82.1577C202.4289,-69.7145 153.6781,-45.339 123.9542,-30.4771"/>
<polygon fill="#000000" stroke="#000000" points="125.1749,-27.1743 114.6653,-25.8327 122.0443,-33.4353 125.1749,-27.1743"/>
</g>
<!-- node6 -->
<g id="node4" class="node">
<title>node6</title>
<polygon fill="none" stroke="#000000" points="171,-36 144,-18 171,0 198,-18 171,-36"/>
<text text-anchor="middle" x="171" y="-14.9" font-family="Times,serif" font-size="12.00" fill="#000000">c</text>
</g>
<!-- node8&#45;&gt;node6 -->
<g id="edge3" class="edge">
<title>node8&#45;&gt;node6</title>
<path fill="none" stroke="#000000" stroke-dasharray="5,2" d="M232.0647,-79.0647C220.7522,-67.7522 202.8843,-49.8843 189.3932,-36.3932"/>
<polygon fill="#000000" stroke="#000000" points="191.5841,-33.6344 182.0382,-29.0382 186.6344,-38.5841 191.5841,-33.6344"/>
</g>
<!-- node4 -->
<g id="node5" class="node">
<title>node4</title>
<polygon fill="none" stroke="#000000" points="243,-36 216,-18 243,0 270,-18 243,-36"/>
<text text-anchor="middle" x="243" y="-14.9" font-family="Times,serif" font-size="12.00" fill="#000000">d</text>
</g>
<!-- node8&#45;&gt;node4 -->
<g id="edge4" class="edge">
<title>node8&#45;&gt;node4</title>
<path fill="none" stroke="#000000" stroke-dasharray="5,2" d="M243,-71.8314C243,-64.131 243,-54.9743 243,-46.4166"/>
<polygon fill="#000000" stroke="#000000" points="246.5001,-46.4132 243,-36.4133 239.5001,-46.4133 246.5001,-46.4132"/>
</g>
<!-- node7 -->
<g id="node6" class="node">
<title>node7</title>
<polygon fill="none" stroke="#000000" points="315,-36 288,-18 315,0 342,-18 315,-36"/>
<text text-anchor="middle" x="315" y="-14.9" font-family="Times,serif" font-size="12.00" fill="#000000">e</text>
</g>
<!-- node8&#45;&gt;node7 -->
<g id="edge5" class="edge">
<title>node8&#45;&gt;node7</title>
<path fill="none" stroke="#000000" stroke-dasharray="1,5" d="M253.9353,-79.0647C265.2478,-67.7522 283.1157,-49.8843 296.6068,-36.3932"/>
<polygon fill="#000000" stroke="#000000" points="299.3656,-38.5841 303.9618,-29.0382 294.4159,-33.6344 299.3656,-38.5841"/>
</g>
<!-- node2 -->
<g id="node7" class="node">
<title>node2</title>
<polygon fill="none" stroke="#000000" points="387,-36 360,-18 387,0 414,-18 387,-36"/>
<text text-anchor="middle" x="387" y="-14.9" font-family="Times,serif" font-size="12.00" fill="#000000">f</text>
</g>
<!-- node8&#45;&gt;node2 -->
<g id="edge6" class="edge">
<title>node8&#45;&gt;node2</title>
<path fill="none" stroke="#000000" d="M258.6846,-82.1577C283.5711,-69.7145 332.3219,-45.339 362.0458,-30.4771"/>
<polygon fill="#000000" stroke="#000000" points="363.9557,-33.4353 371.3347,-25.8327 360.8251,-27.1743 363.9557,-33.4353"/>
</g>
<!-- node1 -->
<g id="node8" class="node">
<title>node1</title>
<polygon fill="none" stroke="#000000" points="459,-36 432,-18 459,0 486,-18 459,-36"/>
<text text-anchor="middle" x="459" y="-14.9" font-family="Times,serif" font-size="12.00" fill="#000000">g</text>
</g>
<!-- node8&#45;&gt;node1 -->
<g id="edge7" class="edge">
<title>node8&#45;&gt;node1</title>
<path fill="none" stroke="#000000" d="M263.0902,-85.1808C296.7563,-76.8391 366.4381,-58.4312 423,-36 426.8364,-34.4786 430.8189,-32.701 434.6757,-30.8666"/>
<polygon fill="#000000" stroke="#000000" points="436.4553,-33.8905 443.8496,-26.3027 433.3374,-27.6232 436.4553,-33.8905"/>
</g>
</g>
</svg>
