<?xml version="1.0" encoding="UTF-8" standalone="no"?>
<!DOCTYPE svg PUBLIC "-//W3C//DTD SVG 1.1//EN"
 "http://www.w3.org/Graphics/SVG/1.1/DTD/svg11.dtd">
<!-- Generated by graphviz version 2.40.1 (20161225.0304)
 -->
<!-- Title: GG Pages: 1 -->
<svg width="494pt" height="116pt"
 viewBox="0.00 0.00 494.00 116.00" xmlns="http://www.w3.org/2000/svg" xmlns:xlink="http://www.w3.org/1999/xlink">
<g id="graph0" class="graph" transform="scale(1 1) rotate(0) translate(4 112)">
<title>GG</title>
<polygon fill="#ffffff" stroke="transparent" points="-4,4 -4,-112 490,-112 490,4 -4,4"/>
<!-- node5 -->
<g id="node1" class="node">
<title>node5</title>
<polygon fill="none" stroke="#000000" points="27,-36 0,-18 27,0 54,-18 27,-36"/>
<a href="A.svg"><text text-anchor="middle" x="27" y="-14.9" font-family="Times,serif" font-size="12.00" fill="#000000">A</text></a>
</g>
<!-- node7 -->
<g id="node2" class="node">
<title>node7</title>
<polygon fill="none" stroke="#000000" points="99,-36 72,-18 99,0 126,-18 99,-36"/>
<a href="B.svg"><text text-anchor="middle" x="99" y="-14.9" font-family="Times,serif" font-size="12.00" fill="#000000">B</text></a>
</g>
<!-- node9 -->
<g id="node3" class="node">
<title>node9</title>
<polygon fill="none" stroke="#000000" points="171,-36 144,-18 171,0 198,-18 171,-36"/>
<a href="C.svg"><text text-anchor="middle" x="171" y="-14.9" font-family="Times,serif" font-size="12.00" fill="#000000">C</text></a>
</g>
<!-- node6 -->
<g id="node4" class="node">
<title>node6</title>
<polygon fill="none" stroke="#000000" points="243,-108 214.0404,-90 243,-72 271.9596,-90 243,-108"/>
<a href="Cat.svg"><text text-anchor="middle" x="243" y="-86.9" font-family="Times,serif" font-size="12.00" fill="#000000">Cat</text></a>
</g>
<!-- node6&#45;&gt;node5 -->
<g id="edge1" class="edge">
<title>node6&#45;&gt;node5</title>
<path fill="none" stroke="#000000" d="M222.0906,-84.9776C188.1236,-76.5427 119.107,-58.2508 63,-36 59.1636,-34.4786 55.1811,-32.701 51.3243,-30.8666"/>
<polygon fill="#000000" stroke="#000000" points="52.6626,-27.6232 42.1504,-26.3027 49.5447,-33.8905 52.6626,-27.6232"/>
</g>
<!-- node6&#45;&gt;node7 -->
<g id="edge2" class="edge">
<title>node6&#45;&gt;node7</title>
<path fill="none" stroke="#000000" d="M226.7613,-81.8806C201.6495,-69.3247 153.2202,-45.1101 123.7356,-30.3678"/>
<polygon fill="#000000" stroke="#000000" points="125.0333,-27.1036 114.5238,-25.7619 121.9028,-33.3646 125.0333,-27.1036"/>
</g>
<!-- node6&#45;&gt;node9 -->
<g id="edge3" class="edge">
<title>node6&#45;&gt;node9</title>
<path fill="none" stroke="#000000" stroke-dasharray="5,2" d="M231.75,-78.75C220.3767,-67.3767 202.6156,-49.6156 189.2297,-36.2297"/>
<polygon fill="#000000" stroke="#000000" points="191.4812,-33.5315 181.9353,-28.9353 186.5315,-38.4812 191.4812,-33.5315"/>
</g>
<!-- node3 -->
<g id="node5" class="node">
<title>node3</title>
<polygon fill="none" stroke="#000000" points="243,-36 216,-18 243,0 270,-18 243,-36"/>
<a href="D.svg"><text text-anchor="middle" x="243" y="-14.9" font-family="Times,serif" font-size="12.00" fill="#000000">D</text></a>
</g>
<!-- node6&#45;&gt;node3 -->
<g id="edge4" class="edge">
<title>node6&#45;&gt;node3</title>
<path fill="none" stroke="#000000" stroke-dasharray="5,2" d="M243,-71.8314C243,-64.131 243,-54.9743 243,-46.4166"/>
<polygon fill="#000000" stroke="#000000" points="246.5001,-46.4132 243,-36.4133 239.5001,-46.4133 246.5001,-46.4132"/>
</g>
<!-- node1 -->
<g id="node6" class="node">
<title>node1</title>
<polygon fill="none" stroke="#000000" points="315,-36 288,-18 315,0 342,-18 315,-36"/>
<a href="E.svg"><text text-anchor="middle" x="315" y="-14.9" font-family="Times,serif" font-size="12.00" fill="#000000">E</text></a>
</g>
<!-- node6&#45;&gt;node1 -->
<g id="edge5" class="edge">
<title>node6&#45;&gt;node1</title>
<path fill="none" stroke="#000000" stroke-dasharray="1,5" d="M254.25,-78.75C265.6233,-67.3767 283.3844,-49.6156 296.7703,-36.2297"/>
<polygon fill="#000000" stroke="#000000" points="299.4685,-38.4812 304.0647,-28.9353 294.5188,-33.5315 299.4685,-38.4812"/>
</g>
<!-- node8 -->
<g id="node7" class="node">
<title>node8</title>
<polygon fill="none" stroke="#000000" points="387,-36 360,-18 387,0 414,-18 387,-36"/>
<a href="F.svg"><text text-anchor="middle" x="387" y="-14.9" font-family="Times,serif" font-size="12.00" fill="#000000">F</text></a>
</g>
<!-- node6&#45;&gt;node8 -->
<g id="edge6" class="edge">
<title>node6&#45;&gt;node8</title>
<path fill="none" stroke="#000000" d="M259.2387,-81.8806C284.3505,-69.3247 332.7798,-45.1101 362.2644,-30.3678"/>
<polygon fill="#000000" stroke="#000000" points="364.0972,-33.3646 371.4762,-25.7619 360.9667,-27.1036 364.0972,-33.3646"/>
</g>
<!-- node4 -->
<g id="node8" class="node">
<title>node4</title>
<polygon fill="none" stroke="#000000" points="459,-36 432,-18 459,0 486,-18 459,-36"/>
<a href="G.svg"><text text-anchor="middle" x="459" y="-14.9" font-family="Times,serif" font-size="12.00" fill="#000000">G</text></a>
</g>
<!-- node6&#45;&gt;node4 -->
<g id="edge7" class="edge">
<title>node6&#45;&gt;node4</title>
<path fill="none" stroke="#000000" d="M263.9094,-84.9776C297.8764,-76.5427 366.893,-58.2508 423,-36 426.8364,-34.4786 430.8189,-32.701 434.6757,-30.8666"/>
<polygon fill="#000000" stroke="#000000" points="436.4553,-33.8905 443.8496,-26.3027 433.3374,-27.6232 436.4553,-33.8905"/>
</g>
</g>
</svg>
